<?xml version="1.0" encoding="iso-8859-1"?>
<!-- Generator: Adobe Illustrator 19.0.0, SVG Export Plug-In . SVG Version: 6.00 Build 0)  -->
<svg version="1.1" id="Capa_1" xmlns="http://www.w3.org/2000/svg" xmlns:xlink="http://www.w3.org/1999/xlink" x="0px" y="0px"
	 viewBox="0 0 512 512" style="enable-background:new 0 0 512 512;" xml:space="preserve">
<path style="fill:#EE8700;" d="M471.5,24.607L112.75,366.756c-0.887,0.577-1.728,1.252-2.504,2.028l-7.796,7.796l-0.051,0.049
	c-0.009,0.009-0.016,0.018-0.025,0.027l-90.275,90.275c-6.061,6.061-6.061,15.98,0,22.042l6.011,6.011
	c6.061,6.061,15.98,6.061,22.042,0l90.266-90.266c0.012-0.012,0.024-0.021,0.036-0.033l0.065-0.069l7.779-7.779
	c0.775-0.775,1.449-1.616,2.026-2.502L482.475,35.581C490.029,27.571,479.512,17.053,471.5,24.607z"/>
<path style="fill:#CC7400;" d="M484.714,31.894c-1.238,0.393-2.487,1.118-3.685,2.245L122.277,376.288
	c-0.886,0.574-1.722,1.249-2.497,2.024l-7.803,7.793l-0.05,0.05c-0.01,0.01-0.01,0.02-0.02,0.03l-90.277,90.277
	c-5.457,5.457-6.001,14.036-1.631,20.117c-0.665-0.473-1.289-1.007-1.883-1.601l-6.021-6.011c-6.061-6.061-6.051-15.979,0-22.041
	l90.277-90.267l7.874-7.874c0.775-0.775,1.621-1.45,2.507-2.034L471.503,24.604C478.31,18.18,486.939,24.836,484.714,31.894z"/>
<path style="fill:#884D00;" d="M138.296,396.838l-98.141,98.141c-5.467,5.467-14.076,6.001-20.158,1.601v-0.01
	c-0.03-0.01-0.06-0.03-0.081-0.05c-0.191-0.131-0.383-0.282-0.564-0.433c-0.433-0.342-0.836-0.705-1.238-1.108l-6.021-6.011
	c-6.061-6.061-6.051-15.979,0-22.041l90.277-90.267l7.874-7.874c0.775-0.775,1.621-1.45,2.507-2.034
	c5.639-3.665,13.16-3.323,18.436,1.037c0.383,0.312,0.745,0.644,1.097,0.997l6.011,6.011
	C144.358,380.859,144.358,390.777,138.296,396.838z"/>
<path style="fill:#FFCD00;" d="M483.21,443.185h-0.414c-6.663,0-12.114-5.451-12.114-12.114v-35.577
	c0-6.663,5.451-12.114,12.114-12.114h0.414c6.663,0,12.114,5.451,12.114,12.114v35.577
	C495.324,437.734,489.873,443.185,483.21,443.185z"/>
<g>
	<path style="fill:#EEBF00;" d="M275.947,261.733c-1.933,0-3.865-0.737-5.34-2.212l-21.968-21.969
		c-2.949-2.949-2.949-7.731,0.001-10.679c2.949-2.949,7.731-2.948,10.679,0.001l21.968,21.969c2.949,2.949,2.949,7.731-0.001,10.679
		C279.811,260.995,277.878,261.733,275.947,261.733z"/>
	<path style="fill:#EEBF00;" d="M383.348,154.332c-1.933,0-3.865-0.737-5.34-2.212l-21.968-21.969
		c-2.949-2.949-2.949-7.731,0.001-10.679c2.949-2.949,7.731-2.948,10.679,0.001l21.968,21.969c2.949,2.949,2.949,7.731-0.001,10.679
		C387.212,153.594,385.279,154.332,383.348,154.332z"/>
</g>
<circle style="fill:#AA6100;" cx="477.826" cy="29.472" r="17.005"/>
<path style="fill:#663A00;" d="M131.188,367.79l-8.911,8.498c-0.886,0.574-1.722,1.249-2.497,2.024l-7.803,7.793l-0.05,0.05
	c-0.01,0.01-0.01,0.02-0.02,0.03l-90.277,90.277c-5.457,5.457-6.001,14.026-1.631,20.107v0.01c-0.03-0.02-0.05-0.04-0.081-0.06
	c-0.191-0.131-0.383-0.282-0.564-0.433c-0.433-0.342-0.836-0.705-1.238-1.108l-6.021-6.011c-6.061-6.061-6.051-15.979,0-22.041
	l90.277-90.267l7.874-7.874c0.775-0.775,1.621-1.45,2.507-2.034C118.39,363.088,125.912,363.43,131.188,367.79z"/>
<path style="fill:#898890;" d="M144.82,400.661l-34.839-34.839c-8.495-8.495-8.495-22.395,0-30.89l0,0
	c8.495-8.495,22.395-8.495,30.89,0l34.839,34.839c8.495,8.495,8.495,22.395,0,30.89l0,0
	C167.215,409.155,153.314,409.155,144.82,400.661z"/>
<path style="fill:#787680;" d="M167.365,405.85c-2.296,0.785-4.702,1.178-7.099,1.178c-5.598,0-11.197-2.125-15.446-6.363
	l-34.838-34.838c-8.498-8.498-8.498-22.403,0-30.891c4.239-4.249,9.837-6.374,15.446-6.374c5.598,0,11.197,2.124,15.446,6.374
	l0.02,0.02c-3.051,1.037-5.92,2.769-8.337,5.196c-8.498,8.498-8.498,22.393,0,30.891L167.365,405.85z"/>
<circle style="fill:#EEBF00;" cx="171.552" cy="394.839" r="39.229"/>
<circle style="fill:#CCA400;" cx="171.552" cy="394.839" r="24.236"/>
<path style="fill:#898890;" d="M221.417,462.985l-52.616-52.616c-4.513-4.513-4.513-11.896,0-16.409l0.28-0.28
	c4.513-4.513,11.896-4.513,16.409,0l52.616,52.616c4.513,4.513,4.513,11.896,0,16.409l-0.28,0.28
	C233.314,467.498,225.93,467.498,221.417,462.985z"/>
<path style="fill:#DDB200;" d="M158.816,422.574c5.739,5.739,12.808,9.334,20.228,10.774c-12.354,2.396-25.655-1.198-35.231-10.774
	c-15.315-15.325-15.315-40.154,0-55.479c9.575-9.575,22.876-13.16,35.231-10.774c-7.421,1.44-14.489,5.034-20.228,10.774
	C143.492,382.42,143.492,407.249,158.816,422.574z"/>
<path style="fill:#787680;" d="M237.957,462.859l-0.131,0.131c-4.511,4.511-11.901,4.511-16.412,0l-52.61-52.62
	c-4.511-4.511-4.511-11.901,0-16.412l0.282-0.282c4.511-4.511,11.891-4.511,16.402,0l0.131,0.131l-0.151,0.151
	c-4.511,4.511-4.511,11.901,0,16.412L237.957,462.859z"/>
<path style="fill:#2D2D30;" d="M230.937,478.426c-6.202,0-12.405-2.361-17.127-7.082c-9.444-9.445-9.444-24.81,0-34.254
	c9.444-9.444,24.811-9.444,34.254,0c9.444,9.445,9.444,24.81,0,34.254C243.343,476.066,237.141,478.426,230.937,478.426z"/>
<circle style="fill:#787680;" cx="230.938" cy="454.214" r="11.585"/>
<polygon style="fill:#FFD422;" points="92.131,443.004 57.001,478.134 38.484,459.607 28.949,450.072 64.069,414.952 
	73.604,424.487 "/>
<rect x="26.446" y="430.538" transform="matrix(-0.7071 0.7071 -0.7071 -0.7071 396.7455 710.2238)" style="fill:#DDB200;" width="49.669" height="13.485"/>
<path d="M494.178,447.384c5.246-3.534,8.699-9.525,8.699-16.311v-35.573c0-8.246-5.105-15.335-12.324-18.245V50.461
	c21.199-12.906,11.96-45.541-12.737-45.541c-14.58,0-25.739,12.685-24.457,26.551l-90.185,86.012
	c-5.385-1.314-10.259,3.384-9.206,8.78L143.379,327.109c-5.105-3.955-11.354-6.099-17.961-6.099
	c-23.86,0-37.523,26.811-24.168,46.088C-2.05,470.387,3.68,463.649,1.362,470.156c-3.102,8.731-0.74,18.023,5.395,24.158
	c5.201,5.181,6.398,6.512,8.184,7.903c8.871,6.935,22.078,6.581,30.551-1.892l84.343-84.343
	c10.324,20.483,34.503,30.833,56.972,23.075c7.206,7.206,5.344,5.344,12.495,12.495l0,0c-2.511,29.539,33.394,45.837,54.1,25.132
	c21.887-21.887,2.436-59.184-27.981-53.747c-0.008-0.008-0.013-0.013-0.018-0.018c-0.013-0.013-0.018-0.018-0.017-0.017
	c-0.143-0.143-1.416-1.416-10.477-10.477c3.353-8.246,4.269-17.127,2.719-25.766c39.208-25.041,57.876-95.291,63.705-121.933
	c73.23,36.789,104.391-27.808,106.548-109.065c43.529,17.128,71.548-22.98,87.568-67.099v288.693
	c-7.219,2.91-12.324,9.998-12.324,18.245v35.573c0,8.246,5.105,15.325,12.324,18.235v3.383c0,4.169,3.383,7.461,7.552,7.542
	c0.181,0.04,1.581-0.07,3.736,0.524c14.942,3.725,12.818,27.276-3.544,27.276c-3.887,0.05-7.32,2.87-7.703,6.796
	c-0.101,1.218,0.06,2.104,0.121,2.286c0,0.04,0.01,0.081,0.03,0.121C478.34,510.757,512,500.648,512,474.136
	C512,462.104,504.64,451.764,494.178,447.384z M33.856,490.448c-2.5,1.807-6.505,1.997-9.227,0.161
	c-1.465-1.153-7.29-7.078-7.189-6.978c-3.116-3.095-3.119-8.259,0-11.358l11.514-11.514l17.366,17.372
	C34.135,490.259,34.862,489.714,33.856,490.448z M57.001,467.451l-17.366-17.372l24.44-24.44l17.372,17.366L57.001,467.451z
	 M92.128,432.324l-17.372-17.366c30.457-30.467,2.607-2.617,32.991-33.002c0.02-0.01,0.03-0.02,0.04-0.04l3.806-3.796
	c11.864,11.715,11.625,11.975,13.323,12.857c-0.236,2.821-0.214,5.659,0.072,8.485L92.128,432.324z M129.403,374.574l-0.028-0.028
	v-0.01c-15.568-15.568-14.415-14.34-15.282-15.48c-9.315-12.215,4.65-28.445,18.091-21.27l-0.009,0.008
	c3.345,1.671,5.27,4.863,16.875,15.999l0.014,0.014C140.518,358.466,133.684,365.655,129.403,374.574z M204.992,435.875
	L204.992,435.875l-4.36-4.36l-10.804-10.804l-15.687-15.687c-2.647-2.647-0.45-7.179,3.141-7.179c2.415,0,0.438-1.254,33.489,31.797
	C208.596,431.46,206.659,433.498,204.992,435.875z M230.939,437.556c14.817,0,22.219,18.022,11.781,28.444
	c-6.471,6.491-17.058,6.514-23.571,0C208.718,455.571,216.092,437.556,230.939,437.556z M211.788,372.411
	c-6.189-4.83-14.77,1.912-11.478,9.122c1.695,3.762,2.69,7.568,2.9,11.861h0.01c0.101,2.306-0.05,4.612-0.453,6.887l-0.01-0.01
	c-9.39-8.089-13.516-17.53-25.474-17.53c-17.003,0-25.941,20.849-13.824,32.965c3.716,3.717,4.599,4.6,10.713,10.713
	c-28.415,2.372-45.499-31.667-25.961-53.009c-0.002,0.002-0.004,0.004-0.006,0.007c3.461-3.862,15.83-14.345,33.096-8.72
	c-0.001-0.001-0.003-0.003-0.004-0.004c0.552,0.179,1.102,0.367,1.645,0.578c7.852,3.031,14.03-7.208,7.673-12.734
	c10.801-11.325,61.51-64.499,72.192-75.7C254.916,306.621,237.591,355.651,211.788,372.411z M173.989,348.116
	c-2.957-0.153-5.925-0.017-8.868,0.394l-10.891-10.891c12.53-11.949,87.296-83.252,99.543-94.932l10.622,10.622L173.989,348.116z
	 M338.132,255.331c-12.878,7.642-29.874,6.162-50.606-4.4l10.079-10.572c2.88-3.021,2.769-7.793-0.252-10.673
	c-3.011-2.88-7.793-2.769-10.673,0.252l-11.86,12.437l-9.551-9.551l-0.563-0.563l99.015-94.428l5.529,5.529l-61.727,64.717
	c-2.87,3.021-2.759,7.793,0.262,10.673c3.011,2.88,7.793,2.769,10.673-0.252l54.11-56.738
	C370.996,192.522,363.254,240.419,338.132,255.331z M379.677,132.429l-5.023-5.023l85.18-81.234
	c0.342,0.373,0.705,0.735,1.077,1.087L379.677,132.429z M392.252,141.131l75.949-79.644
	C456.377,103.932,432.999,158.303,392.252,141.131z M473.809,38.036c-9.13-4.314-5.973-18.013,4.007-18.013
	c5.262,0,9.455,4.276,9.455,9.455C487.271,36.4,480.037,40.969,473.809,38.036z M487.775,431.072c0,6.085-9.545,6.089-9.545,0
	c0-5.323,0-7.004,0-10.24h9.545C487.775,424.725,487.775,427.43,487.775,431.072z M487.775,405.729h-9.545c0-3.548,0-6.597,0-10.23
	c0-2.477,2.094-4.571,4.571-4.571h0.413c2.467,0,4.561,2.094,4.561,4.571C487.775,399.171,487.775,402.2,487.775,405.729z"/>
<g>
</g>
<g>
</g>
<g>
</g>
<g>
</g>
<g>
</g>
<g>
</g>
<g>
</g>
<g>
</g>
<g>
</g>
<g>
</g>
<g>
</g>
<g>
</g>
<g>
</g>
<g>
</g>
<g>
</g>
</svg>
