<?xml version="1.0" encoding="iso-8859-1"?>
<!-- Generator: Adobe Illustrator 19.0.0, SVG Export Plug-In . SVG Version: 6.00 Build 0)  -->
<svg version="1.1" id="Layer_1" xmlns="http://www.w3.org/2000/svg" xmlns:xlink="http://www.w3.org/1999/xlink" x="0px" y="0px"
	 viewBox="0 0 512 512" style="enable-background:new 0 0 512 512;" xml:space="preserve">
<circle style="fill:#FCEA81;" cx="133.169" cy="98.359" r="50.495"/>
<path style="fill:#EA8249;" d="M357.382,93.525L206.427,92.92l-49-0.191c0.297-0.848,0.594-1.686,0.912-2.524
	c3.521-9.418,5.483-19.345,6.247-29.368l1.644-21.785c0.509-6.767,6.788-11.582,13.448-10.33l12.961,2.45
	c8.867,1.676,18.009,0.817,26.42-2.45c0.838-0.329,1.686-0.647,2.535-0.944c11.147-4.009,23.153-6.183,35.679-6.183h0.011
	c13.47,0,26.356,2.524,38.203,7.127c8.411,3.267,17.553,4.115,26.42,2.45l12.95-2.45c6.671-1.252,12.95,3.564,13.459,10.33
	l1.644,21.774c0.753,10.033,2.715,19.96,6.236,29.368C356.607,91.297,357,92.411,357.382,93.525z"/>
<path style="fill:#D36F3D;" d="M206.427,92.92l-49-0.191c0.297-0.848,0.594-1.686,0.912-2.524
	c3.521-9.418,5.483-19.345,6.247-29.368l1.644-21.785c0.509-6.767,6.788-11.582,13.448-10.33l12.961,2.45
	c8.867,1.676,18.009,0.817,26.42-2.45c0.838-0.329,1.686-0.647,2.535-0.944C212.493,43.783,202.736,67.773,206.427,92.92z"/>
<path style="fill:#F9C573;" d="M347.155,392.465l44.066-86.232l25.774-50.437l5.371-10.509c2.194-4.295,7.456-5.998,11.751-3.803
	l11.173,5.709c4.295,2.194,5.998,7.456,3.803,11.751l-5.371,10.509l-25.774,50.437l-64.657,126.525L347.155,392.465z"/>
<path style="fill:#CCCCCC;" d="M409.506,249.464c2.356,2.239,4.855,4.351,7.489,6.333c3.952,2.976,8.216,5.651,12.775,7.981
	c4.558,2.329,9.225,4.218,13.952,5.677c3.15,0.973,6.328,1.756,9.52,2.358c16.486,3.105,33.311,1.278,48.475-4.829
	c4.861,19.595,2.943,40.965-6.963,60.349c-9.908,19.389-26.101,33.459-44.828,41c-3.937-15.862-12.314-30.568-24.488-42.108
	c-2.358-2.235-4.855-4.351-7.489-6.333c-3.952-2.976-8.216-5.651-12.775-7.981c-4.558-2.329-9.225-4.218-13.952-5.677
	c-3.15-0.973-6.325-1.762-9.52-2.358L409.506,249.464z"/>
<path style="fill:#F9C573;" d="M165.281,392.465l-44.066-86.232l-25.774-50.437l-5.371-10.509
	c-2.194-4.295-7.456-5.998-11.751-3.803l-11.173,5.709c-4.295,2.194-5.998,7.456-3.803,11.751l5.371,10.509l25.774,50.437
	l64.656,126.525L165.281,392.465z"/>
<path style="fill:#CCCCCC;" d="M130.735,303.876c-3.195,0.597-6.37,1.386-9.52,2.358c-4.727,1.459-9.394,3.348-13.952,5.677
	c-4.558,2.329-8.823,5.005-12.775,7.981c-2.633,1.983-5.131,4.099-7.489,6.333c-12.175,11.541-20.551,26.247-24.488,42.108
	c-18.727-7.541-34.92-21.611-44.828-41c-9.906-19.385-11.824-40.755-6.963-60.349c15.163,6.108,31.989,7.934,48.475,4.829
	c3.192-0.601,6.37-1.386,9.52-2.358c4.727-1.459,9.394-3.348,13.952-5.677c4.558-2.329,8.823-5.005,12.775-7.981
	c2.633-1.983,5.133-4.094,7.489-6.333L130.735,303.876z"/>
<g>
	<path style="fill:#E0B394;" d="M144.411,238.868c-13.151-0.583-23.62-11.433-23.62-24.723c0-13.661,11.073-24.744,24.744-24.744
		c1.23,0,2.439,0.085,3.627,0.265L144.411,238.868z"/>
	<path style="fill:#E0B394;" d="M368.007,238.868c13.151-0.583,23.63-11.433,23.63-24.723c0-13.661-11.083-24.744-24.754-24.744
		c-1.23,0-2.45,0.095-3.627,0.265L368.007,238.868z"/>
</g>
<path style="fill:#F95428;" d="M306.23,328.521H206.206c-36.226,0-65.594,29.367-65.594,65.594v96.282h231.211v-96.282
	C371.823,357.888,342.456,328.521,306.23,328.521z"/>
<path style="fill:#E54728;" d="M246.621,328.521h-40.415c-36.226,0-65.594,29.367-65.594,65.594v96.282h40.415v-96.282
	C181.027,357.888,210.394,328.521,246.621,328.521z"/>
<path style="fill:#F7CBA4;" d="M220.419,345.824l-43.537-31.631c-23.007-16.715-35.453-44.356-32.717-72.663l7.551-78.143
	c5.201-53.82,50.428-94.888,104.499-94.888l0,0c54.07,0,99.298,41.067,104.499,94.888l7.551,78.143
	c2.735,28.306-9.71,55.947-32.717,72.663l-43.537,31.631C270.666,361.331,241.764,361.331,220.419,345.824z"/>
<path style="fill:#E0B394;" d="M171.258,256.93c-0.732,12.377,3.298,24.553,11.274,34.045l45.503,55.915
	c2.376,2.832,5.07,5.208,7.986,7.106c-5.473-1.909-10.733-4.645-15.601-8.177l-43.538-31.627
	c-23.004-16.715-35.445-44.354-32.709-72.662l7.541-78.145c5.155-53.295,49.551-94.086,102.931-94.86
	c-32.879,0.795-70.109,31.786-72.05,64.792L171.258,256.93z"/>
<path style="fill:#EA8249;" d="M372.347,164.776c-55.671-22.039-116.04-27.639-174.108-16.779
	c-19.748,3.691-39.232,9.28-58.163,16.779c1.782-22.612,3.564-45.224,5.345-67.815c17.659-6.629,35.763-11.614,54.101-14.954
	c55.809-10.203,113.717-5.208,167.49,14.954C368.794,119.552,370.576,142.164,372.347,164.776z"/>
<path style="fill:#D36F3D;" d="M199.522,82.007l-1.283,65.99c-19.748,3.691-39.232,9.28-58.163,16.779
	c1.782-22.612,3.564-45.224,5.345-67.815C163.08,90.332,181.184,85.348,199.522,82.007z"/>
<g>
	<path style="fill:#4D4D4D;" d="M357.785,302.717c-5.176,3.914-11.592,7.7-18.688,10.892c-28.763,12.918-68.737,16.1-82.886-20.745
		c-14.138,36.845-54.112,33.663-82.875,20.745c-7.095-3.192-13.512-6.979-18.688-10.892c24.988,0,33.016-30.344,63.36-42.838
		c13.904-5.727,24.054-3.574,30.98,0.435c3.033,1.75,5.483,4.179,7.254,7.021c1.909-3.033,4.582-5.621,7.891-7.414
		c6.894-3.755,16.842-5.579,30.291-0.042C324.768,272.374,332.797,302.717,357.785,302.717z"/>
	<path style="fill:#4D4D4D;" d="M339.097,313.61c0,0-0.148,46.316-43.633,61.165l-5.303-16.97l-33.939,40.303l-33.939-40.303
		l-5.303,16.97c-43.485-14.848-43.644-61.165-43.644-61.165c28.763,12.918,68.737,16.1,82.875-20.745
		C270.359,329.71,310.333,326.528,339.097,313.61z"/>
</g>
<g>
	<polygon style="fill:#F9C573;" points="334.702,323.102 334.702,490.399 311.369,490.399 311.369,366.852 	"/>
	<polygon style="fill:#F9C573;" points="177.733,323.102 177.733,490.399 201.066,490.399 201.066,366.852 	"/>
</g>
<path d="M208.782,213.274c-4.393,0-7.954,3.561-7.954,7.954v12.723c0,4.393,3.561,7.954,7.954,7.954
	c4.393,0,7.954-3.561,7.954-7.954v-12.723C216.737,216.835,213.175,213.274,208.782,213.274z"/>
<path d="M290.65,196.096c3.356-3.356,7.817-5.203,12.562-5.203s9.207,1.848,12.562,5.203c1.553,1.553,3.589,2.33,5.624,2.33
	c2.035,0,4.072-0.776,5.624-2.33c3.106-3.107,3.106-8.143,0-11.249c-13.129-13.129-34.493-13.129-47.622,0
	c-3.107,3.106-3.107,8.143,0,11.249C282.507,199.202,287.543,199.202,290.65,196.096z"/>
<path d="M196.22,196.096c3.356-3.356,7.817-5.203,12.562-5.203c4.745,0,9.206,1.848,12.562,5.203c1.553,1.553,3.589,2.33,5.624,2.33
	c2.035,0,4.072-0.776,5.624-2.33c3.106-3.107,3.106-8.143,0-11.249c-13.128-13.13-34.492-13.13-47.622,0
	c-3.107,3.106-3.107,8.143,0,11.249C188.077,199.202,193.114,199.202,196.22,196.096z"/>
<path d="M303.212,213.274c-4.393,0-7.954,3.561-7.954,7.954v12.723c0,4.393,3.561,7.954,7.954,7.954s7.954-3.561,7.954-7.954
	v-12.723C311.166,216.835,307.605,213.274,303.212,213.274z"/>
<path d="M371.605,459.389c-4.393,0-7.954,3.561-7.954,7.954v15.098h-21.212V374.78c0-4.393-3.561-7.954-7.954-7.954
	c-4.393,0-7.954,3.561-7.954,7.954v107.661h-7.424v-91.752c0-4.393-3.561-7.954-7.954-7.954s-7.954,3.562-7.954,7.954v91.752
	h-94.393v-91.752c0-4.393-3.561-7.954-7.954-7.954s-7.954,3.562-7.954,7.954v91.752h-7.424V374.78c0-4.393-3.561-7.954-7.954-7.954
	c-4.393,0-7.954,3.561-7.954,7.954v107.661h-21.212v-92.155c0-13.311,5.109-25.886,14.385-35.41
	c3.065-3.147,2.999-8.184-0.148-11.248c-3.147-3.066-8.184-3-11.248,0.148c-12.186,12.511-18.897,29.03-18.897,46.51v100.11
	c0,4.393,3.561,7.954,7.954,7.954h37.07c0.017,0,0.034,0.002,0.051,0.002h23.333c0.017,0,0.034-0.002,0.051-0.002H311.1
	c0.017,0,0.034,0.002,0.051,0.002h23.333c0.017,0,0.034-0.002,0.051-0.002h37.07c4.393,0,7.954-3.561,7.954-7.954v-23.052
	C379.56,462.951,375.998,459.389,371.605,459.389z"/>
<path d="M349.418,343.624c-3.149,3.064-3.218,8.1-0.155,11.248c9.278,9.537,14.388,22.113,14.388,35.413v49.482
	c0,4.393,3.561,7.954,7.954,7.954c4.393,0,7.954-3.561,7.954-7.954v-49.482c0-17.468-6.71-33.984-18.895-46.507
	C357.603,340.631,352.567,340.562,349.418,343.624z"/>
<path d="M137.274,96.337c-1.786,22.59-3.568,45.197-5.344,67.821c-0.215,2.736,0.996,5.391,3.204,7.021
	c2.169,1.602,4.998,1.986,7.515,1.042l-0.911,9.429c-16.353,1.788-29.121,15.678-29.121,32.499c0,14.714,9.65,27.177,23.092,31.274
	c-0.768,18.033,4.09,35.976,13.703,51.151c-1.137,0.928-2.035,2.155-2.525,3.615c-1.087,3.24,0.017,6.813,2.743,8.875
	c4.614,3.489,10.012,6.789,15.799,9.69c1.811,19.213,13.482,51.506,48.761,63.551c2.03,0.695,4.255,0.538,6.168-0.434
	c1.913-0.97,3.354-2.674,3.994-4.722l0.974-3.117l24.591,29.201c1.511,1.795,3.738,2.831,6.085,2.831s4.573-1.036,6.085-2.831
	l24.591-29.201l0.974,3.117c0.641,2.048,2.08,3.751,3.994,4.722c1.915,0.973,4.14,1.128,6.168,0.434
	c35.279-12.046,46.944-44.338,48.751-63.552c5.783-2.9,11.182-6.199,15.797-9.689c2.726-2.062,3.831-5.635,2.743-8.875
	c-0.49-1.461-1.39-2.691-2.53-3.619c9.612-15.174,14.469-33.115,13.7-51.148c13.444-4.098,23.097-16.56,23.097-31.272
	c0-16.819-12.77-30.708-29.125-32.498l-0.911-9.428c0.906,0.34,1.851,0.512,2.793,0.512c1.677,0,3.337-0.53,4.727-1.556
	c2.208-1.631,3.419-4.285,3.204-7.021c-1.776-22.624-3.557-45.23-5.344-67.821c-0.243-3.078-2.245-5.737-5.136-6.821
	c-2.059-0.772-4.132-1.517-6.211-2.248c-3.051-8.2-4.972-17.292-5.704-27.035l-1.644-21.772c-0.413-5.475-3.145-10.534-7.498-13.878
	c-4.357-3.348-9.957-4.687-15.371-3.671l-12.939,2.448c-7.408,1.393-15.04,0.684-22.071-2.047
	c-13.093-5.088-26.916-7.667-41.094-7.667c-14.175,0-28.001,2.579-41.093,7.667c-7.044,2.736-14.674,3.447-22.063,2.049
	l-12.969-2.452c-5.397-1.015-10.991,0.322-15.347,3.669c-4.356,3.345-7.09,8.405-7.502,13.88l-1.644,21.779
	c-0.718,9.43-2.552,18.242-5.416,26.196c-2.882,0.988-5.752,2.011-8.606,3.082C139.521,90.601,137.518,93.26,137.274,96.337z
	 M352.775,166.221l7.348,76.08c1.692,17.524-3.193,35.209-13.455,49.392c-4.683-2.762-9.264-7.317-15.175-13.422
	c-8.786-9.074-18.745-19.359-34.261-25.747c-8.096-3.333-15.16-4.331-21.152-4.029c0.027-0.426,0.065-0.85,0.065-1.281v-37.651
	c0-4.393-3.561-7.954-7.954-7.954c-4.393,0-7.954,3.561-7.954,7.954v37.651c0,2.34-1.903,4.242-4.242,4.242
	c-2.34,0-4.242-1.903-4.242-4.242v-37.651c0-4.393-3.561-7.954-7.954-7.954s-7.954,3.561-7.954,7.954v37.651
	c0,0.434,0.038,0.857,0.065,1.283c-6.015-0.307-13.073,0.701-21.148,4.028c-15.514,6.388-25.473,16.673-34.261,25.747
	c-5.913,6.106-10.496,10.663-15.179,13.425c-10.262-14.186-15.149-31.87-13.457-49.395l7.349-76.079
	C222.216,145.285,289.774,145.284,352.775,166.221z M176.382,306.355c-0.872-0.392-1.736-0.795-2.589-1.208
	c6.823-4.123,12.534-10.021,18.138-15.808c8.083-8.347,16.439-16.977,28.89-22.104c9.315-3.836,17.379-3.849,23.975-0.031
	c1.839,1.062,3.346,2.521,4.479,4.339c1.449,2.325,3.993,3.741,6.734,3.747c0.006,0,0.012,0,0.018,0
	c2.733,0,5.276-1.404,6.733-3.717c1.235-1.961,2.945-3.571,4.963-4.665c6.474-3.525,14.367-3.415,23.458,0.328
	c12.448,5.126,20.806,13.757,28.888,22.103c5.604,5.789,11.316,11.686,18.139,15.808c-0.852,0.413-1.714,0.815-2.585,1.206
	c-19.377,8.702-38.992,10.579-52.47,5.024c-9.087-3.746-15.725-10.935-19.731-21.365c-1.18-3.075-4.133-5.104-7.426-5.104
	c-3.293,0-6.246,2.03-7.425,5.105c-4.001,10.429-10.636,17.616-19.721,21.362C215.368,316.935,195.755,315.056,176.382,306.355z
	 M128.529,214.149c0-7.451,4.883-13.777,11.615-15.964l-2.961,30.66C132.005,225.98,128.529,220.474,128.529,214.149z
	 M300.236,364.073l-2.7-8.641c-0.866-2.772-3.175-4.852-6.024-5.425c-2.848-0.574-5.782,0.452-7.653,2.674l-27.855,33.078
	l-27.855-33.078c-1.872-2.222-4.805-3.246-7.653-2.674c-2.849,0.573-5.158,2.653-6.024,5.425l-2.702,8.649
	c-19.003-9.571-26.236-26.687-28.994-38.326c8.01,2.517,18.019,4.725,28.545,4.725c7.793,0,15.861-1.209,23.591-4.397
	c8.6-3.547,15.652-9.079,21.084-16.519c5.434,7.442,12.489,12.973,21.092,16.52c18.134,7.475,38.132,4.064,52.068-0.303
	C326.341,337.419,319.063,354.541,300.236,364.073z M383.465,214.149c0,6.325-3.479,11.831-8.658,14.694l-2.961-30.658
	C378.58,200.374,383.465,206.698,383.465,214.149z M152.732,102.681c46.767-16.664,97.297-21.785,146.478-14.806
	c4.353,0.618,8.377-2.409,8.993-6.758c0.616-4.35-2.409-8.376-6.758-8.993c-44.138-6.264-89.304-3.25-132.164,8.653
	c1.487-6.165,2.504-12.625,3.015-19.336l1.645-21.787c0.1-1.328,0.875-2.111,1.328-2.458c0.454-0.349,1.412-0.896,2.71-0.652
	l12.962,2.45c10.314,1.949,20.956,0.963,30.778-2.852c11.249-4.371,23.136-6.587,35.343-6.587c12.188,0,24.072,2.217,35.322,6.587
	c9.8,3.806,20.44,4.794,30.779,2.851l12.938-2.448c1.314-0.251,2.278,0.302,2.733,0.652c0.453,0.348,1.228,1.13,1.328,2.458
	l1.644,21.771c0.521,6.935,1.579,13.612,3.15,19.97c-5.453-1.561-10.938-2.983-16.438-4.249c-4.28-0.987-8.551,1.686-9.536,5.968
	c-0.985,4.282,1.687,8.551,5.968,9.536c11.575,2.663,23.095,6.031,34.314,10.028c1.324,16.749,2.645,33.512,3.962,50.28
	c-69.604-24.498-144.851-24.498-214.455,0C150.088,136.192,151.408,119.431,152.732,102.681z"/>
<path d="M141.019,345.416c3.911-1.999,5.463-6.791,3.464-10.703l-11.846-23.181c2.177-0.603,4.012-2.099,5.019-4.147
	c1.106-2.253,1.086-4.895-0.055-7.129l-27.806-54.412c-1.142-2.234-3.271-3.799-5.745-4.221c-2.247-0.383-4.535,0.226-6.3,1.638
	l-0.813-1.592c-2.029-3.97-5.481-6.912-9.723-8.284c-4.239-1.372-8.762-1.012-12.732,1.017l-11.172,5.709
	c-3.97,2.029-6.912,5.481-8.284,9.723s-1.012,8.763,1.017,12.731l0.79,1.546c-14.557,2.611-29.533,1.063-43.357-4.505
	c-2.137-0.861-4.54-0.753-6.592,0.295c-2.051,1.048-3.547,2.934-4.101,5.168c-5.494,22.145-2.795,45.543,7.6,65.884
	s27.776,36.236,48.941,44.758c0.956,0.385,1.964,0.576,2.971,0.576c1.244,0,2.486-0.292,3.62-0.871
	c2.05-1.048,3.547-2.933,4.101-5.167c3.59-14.466,11.111-27.509,21.754-37.774l22.7,44.421c1.407,2.753,4.197,4.337,7.09,4.337
	c1.218,0,2.454-0.281,3.613-0.873c3.911-1.999,5.463-6.791,3.464-10.702l-24.106-47.174c1.99-1.249,4.039-2.417,6.137-3.489
	c2.098-1.072,4.246-2.048,6.423-2.928l13.228,25.886c1.407,2.753,4.197,4.337,7.09,4.337
	C138.624,346.288,139.86,346.008,141.019,345.416z M70.161,254.732c0.067-0.204,0.196-0.356,0.387-0.454l11.172-5.709
	c0.191-0.098,0.389-0.112,0.595-0.048c0.204,0.066,0.356,0.196,0.454,0.387l2.196,4.299c-1.99,1.249-4.039,2.417-6.137,3.489
	c-2.099,1.072-4.246,2.049-6.423,2.929l-2.197-4.299C70.111,255.135,70.095,254.935,70.161,254.732z M57.343,357.241
	c-14.013-7.548-25.482-19.215-32.795-33.527c-7.314-14.312-10.049-30.439-7.957-46.218c12.325,3.581,25.201,4.618,37.915,3.053
	l22.577,44.179C68.367,334.113,61.664,345.157,57.343,357.241z M103.425,304.828c-4.9,2.504-9.59,5.435-13.942,8.711
	c-0.047,0.035-0.091,0.071-0.137,0.107c-0.014,0.011-0.031,0.021-0.045,0.032l-18.68-36.556c0.073-0.022,0.147-0.042,0.221-0.065
	c5.202-1.606,10.324-3.69,15.226-6.195c4.9-2.504,9.59-5.434,13.941-8.71c0.062-0.046,0.122-0.092,0.183-0.138l18.679,36.552
	c-0.073,0.022-0.147,0.045-0.221,0.068C113.447,300.24,108.325,302.324,103.425,304.828z"/>
<path d="M509.218,265.069c-0.555-2.235-2.05-4.12-4.101-5.168c-2.052-1.048-4.457-1.156-6.592-0.295
	c-13.824,5.569-28.799,7.116-43.358,4.504l0.789-1.545c2.029-3.97,2.391-8.491,1.017-12.732c-1.372-4.241-4.315-7.694-8.283-9.721
	l-11.173-5.71c-3.97-2.028-8.492-2.388-12.731-1.016c-4.241,1.372-7.694,4.315-9.723,8.284l-0.813,1.592
	c-1.765-1.411-4.051-2.018-6.3-1.638c-2.474,0.422-4.603,1.988-5.745,4.221l-27.806,54.412c-1.142,2.235-1.162,4.877-0.055,7.129
	c1.007,2.048,2.841,3.543,5.019,4.147l-11.846,23.181c-1.999,3.911-0.448,8.703,3.464,10.703c1.159,0.593,2.395,0.873,3.613,0.873
	c2.892,0,5.683-1.583,7.09-4.337l13.228-25.886c2.178,0.88,4.325,1.856,6.423,2.928c2.099,1.072,4.148,2.24,6.137,3.489
	l-24.106,47.174c-1.999,3.911-0.448,8.703,3.464,10.702c1.159,0.593,2.395,0.873,3.613,0.873c2.892,0,5.683-1.583,7.09-4.337
	l22.7-44.422c10.644,10.267,18.164,23.31,21.754,37.774c0.555,2.235,2.051,4.119,4.101,5.167c1.134,0.579,2.375,0.871,3.62,0.871
	c1.007,0,2.016-0.191,2.971-0.576c21.165-8.522,38.545-24.417,48.941-44.758C512.013,310.612,514.712,287.215,509.218,265.069z
	 M429.685,248.52c0.203-0.066,0.403-0.05,0.594,0.047l11.173,5.71c0.191,0.098,0.32,0.25,0.387,0.454
	c0.066,0.204,0.05,0.403-0.048,0.595l-2.197,4.298c-2.177-0.88-4.325-1.856-6.424-2.929c-2.098-1.072-4.147-2.24-6.137-3.489
	l2.197-4.299C429.328,248.716,429.481,248.585,429.685,248.52z M393.35,298.634c-0.073-0.022-0.147-0.046-0.221-0.068l18.679-36.552
	c0.062,0.046,0.122,0.092,0.184,0.138c4.35,3.275,9.039,6.206,13.939,8.71c4.902,2.504,10.024,4.589,15.226,6.195
	c0.073,0.022,0.147,0.042,0.221,0.065l-18.68,36.556c-0.013-0.011-0.028-0.019-0.041-0.03c-0.048-0.036-0.094-0.074-0.141-0.11
	c-4.351-3.275-9.041-6.206-13.941-8.71C403.676,302.324,398.553,300.24,393.35,298.634z M487.451,323.714
	c-7.314,14.312-18.782,25.979-32.795,33.527c-4.32-12.083-11.023-23.126-19.74-32.513l22.576-44.178
	c12.716,1.566,25.591,0.528,37.915-3.053C497.502,293.275,494.765,309.402,487.451,323.714z"/>
<path d="M110.449,152.591c1.012,0.427,2.062,0.63,3.095,0.63c3.099,0,6.046-1.823,7.33-4.858c1.711-4.046-0.181-8.714-4.228-10.426
	c-15.939-6.741-26.237-22.278-26.237-39.582c0-23.685,19.269-42.954,42.954-42.954c4.393,0,7.954-3.561,7.954-7.954
	s-3.561-7.954-7.954-7.954c-32.458,0-58.863,26.406-58.863,58.863C74.5,122.064,88.61,143.353,110.449,152.591z"/>
<path d="M25.182,106.31h28.636c4.393,0,7.954-3.561,7.954-7.954c0-4.393-3.561-7.954-7.954-7.954H25.182
	c-4.393,0-7.954,3.561-7.954,7.954C17.227,102.749,20.789,106.31,25.182,106.31z"/>
<path d="M73.648,144.701l-16.97,16.97c-3.106,3.106-3.106,8.143,0,11.249c1.553,1.553,3.589,2.33,5.624,2.33
	c2.035,0,4.072-0.776,5.624-2.33l16.97-16.97c3.106-3.106,3.106-8.143,0-11.249C81.79,141.594,76.753,141.594,73.648,144.701z"/>
<path d="M70.466,43.526c1.553,1.553,3.589,2.33,5.624,2.33c2.035,0,4.072-0.776,5.624-2.33c3.106-3.106,3.106-8.143,0-11.249
	L71.109,21.671c-3.106-3.106-8.143-3.106-11.249,0c-3.106,3.106-3.106,8.143,0,11.249L70.466,43.526z"/>
<g>
</g>
<g>
</g>
<g>
</g>
<g>
</g>
<g>
</g>
<g>
</g>
<g>
</g>
<g>
</g>
<g>
</g>
<g>
</g>
<g>
</g>
<g>
</g>
<g>
</g>
<g>
</g>
<g>
</g>
</svg>
