<svg id="Capa_1" enable-background="new 0 0 512 512" height="512" viewBox="0 0 512 512" width="512" xmlns="http://www.w3.org/2000/svg"><g><g><path d="m495.615 503.298c6.106 0 10.398-5.98 8.485-11.778-30.173-91.466-116.313-157.486-217.886-157.486h-60.428c-101.573 0-187.713 66.02-217.886 157.486-1.913 5.799 2.379 11.778 8.485 11.778z" fill="#786e79"/></g><g><path d="m504.1 491.519c-30.172-91.466-116.313-157.486-217.886-157.486h-60.428c-1.983 0-3.957.034-5.928.084 98.985 2.512 182.375 67.721 211.959 157.402 1.913 5.799-2.379 11.778-8.485 11.778h72.284c6.105.001 10.397-5.979 8.484-11.778z" fill="#453e43"/></g><g><path d="m289.641 369.316h-67.281c-17.211 0-31.163-13.952-31.163-31.163v-64.012h129.607v64.012c0 17.211-13.953 31.163-31.163 31.163z" fill="#ffcbbe"/></g><g><path d="m293.665 274.141v64.217c0 17.098-13.86 30.958-30.958 30.958h27.139c17.098 0 30.958-13.86 30.958-30.958v-64.217z" fill="#fdad9d"/></g><g><g><path d="m296.104 485.859c3.569-8.252-.228-17.835-8.48-21.404l-232.854-100.704-12.924 29.883 232.854 100.705c8.252 3.569 17.835-.228 21.404-8.48z" fill="#fba615"/></g><g><path d="m47.683 380.138 225.519 97.532c8.042 3.478 17.344-.041 21.116-7.859 3.274 4.503 4.155 10.568 1.785 16.048-3.569 8.252-13.152 12.049-21.404 8.48l-232.852-100.704z" fill="#f88604"/></g><g><path d="m64.323 385.619c-16.174 37.398-20.606 76.916-14.932 114.438.311 2.059-2.366 3.117-3.547 1.402-25.322-36.756-31.724-85.337-12.701-129.325 19.024-43.988 58.808-72.594 102.933-79.316 2.059-.314 3.121 2.362 1.408 3.545-31.227 21.564-56.987 51.858-73.161 89.256z" fill="#b1abb5"/></g><g><path d="m136.077 292.819c-15.864 2.417-31.159 7.676-45.137 15.447-17.665 23.454-31.156 50.664-39.075 80.82-9.112 34.7-9.878 69.626-3.554 102.659-3.871-35.014 1.028-71.479 16.012-106.126 16.174-37.398 41.934-67.692 73.161-89.255 1.714-1.183.651-3.859-1.407-3.545z" fill="#786e79"/></g><g><path d="m76.421 408.668 12.982-30.019c2.192-5.069-.14-10.956-5.209-13.148l-40-17.299c-5.069-2.192-10.956.14-13.148 5.209l-12.982 30.019c-2.192 5.069.14 10.956 5.209 13.148l40 17.299c5.07 2.192 10.956-.14 13.148-5.209z" fill="#786e79"/></g><g><path d="m20.36 378.122 37.888 16.386c3.304 1.429 7.142-.091 8.571-3.396l12.069-27.906 7.728 3.342c3.733 1.614 5.45 5.949 3.835 9.681l-15.076 34.859c-1.614 3.733-5.949 5.45-9.681 3.835l-44.841-19.393c-3.733-1.614-5.45-5.949-3.835-9.681z" fill="#453e43"/></g></g><g><g><path d="m354.335 179.363c-.619-.046-1.22-.058-1.811-.054v-32.05c0-17.628-14.291-31.919-31.919-31.919h-127.876c-17.629 0-31.919 14.291-31.919 31.919v32.098c-1.007-.07-2.052-.074-3.145.006-15.632 1.151-27.722 9.999-26.356 28.546 1.337 18.156 15.074 38.86 30.317 38.645 6.141 47.017 46.35 83.322 95.041 83.322 48.704 0 88.921-36.324 95.046-83.358 14.7-.965 27.68-20.987 28.978-38.61 1.366-18.546-10.724-27.394-26.356-28.545z" fill="#ffcbbe"/></g><g><path d="m354.335 179.363c-.619-.046-1.22-.058-1.811-.054v-32.05c0-17.628-14.291-31.919-31.919-31.919h-4.641c1.127 3.266 1.748 6.768 1.748 10.416v86.761c0 52.94-42.917 95.856-95.857 95.856-11.134 0-21.821-1.905-31.762-5.395 17.243 16.651 40.711 26.898 66.575 26.898 48.704 0 88.921-36.324 95.046-83.358 14.7-.965 27.68-20.987 28.978-38.61 1.365-18.546-10.725-27.394-26.357-28.545z" fill="#fdad9d"/></g></g><g><path d="m272.933 8.702h-33.866c-49.203 0-89.091 39.887-89.091 89.091v39.228h212.048v-39.228c0-49.203-39.887-89.091-89.091-89.091z" fill="#fba615"/></g><g><path d="m311.592 17.291c10.78 14.664 17.152 32.768 17.152 52.363 0 14.612-11.845 26.457-26.457 26.457h-152.297c-.005.005-.008.008-.014.014v40.896h212.048v-39.814c0-35.249-20.608-65.682-50.432-79.916z" fill="#f88604"/></g><g><circle cx="256" cy="84.565" fill="#fdf3c4" r="40.436"/></g><g><path d="m275.751 49.284c3.278 5.842 5.155 12.576 5.155 19.751 0 22.332-18.104 40.436-40.436 40.436-7.175 0-13.909-1.877-19.751-5.155 6.923 12.341 20.125 20.685 35.281 20.685 22.332 0 40.436-18.104 40.436-40.436 0-15.157-8.344-28.358-20.685-35.281z" fill="#fcdd2e"/></g><g><path d="m138.373 134.348c0 2.968 1.447 5.758 3.894 7.437 28.118 19.288 68.656 31.399 113.732 31.399 45.077 0 85.614-12.111 113.732-31.399 2.448-1.679 3.894-4.468 3.894-7.437 0-4.987-4.043-9.029-9.03-9.029h-217.192c-4.987 0-9.03 4.042-9.03 9.029z" fill="#fba615"/></g><g><path d="m364.597 125.319h-23.727c-31.247 20.956-75.817 34.07-125.306 34.07-17.498 0-34.379-1.644-50.276-4.689 25.426 11.62 56.782 18.484 90.712 18.484 45.077 0 85.614-12.111 113.732-31.399 2.448-1.679 3.894-4.468 3.894-7.437.001-4.987-4.042-9.029-9.029-9.029z" fill="#f88604"/></g><g><path d="m511.176 489.185c-4.264-12.927-9.696-25.574-16.144-37.59-1.946-3.626-6.463-4.987-10.088-3.042-3.626 1.946-4.988 6.462-3.042 10.088 6.041 11.256 11.128 23.104 15.122 35.212.204.619-.001 1.093-.21 1.381-.202.279-.574.612-1.2.612h-197.367c1.944-2.021 3.549-4.378 4.695-7.03 2.516-5.818 2.616-12.267.281-18.16s-6.824-10.524-12.642-13.04l-185.697-80.31c24.133-15.685 51.301-26.624 79.509-31.963 3.296 17.853 18.968 31.423 37.76 31.423h67.692c18.791 0 34.462-13.568 37.76-31.419 54.185 10.197 102.19 39.962 135.76 84.372 1.465 1.938 3.693 2.958 5.949 2.958 1.564 0 3.143-.491 4.487-1.508 3.282-2.481 3.932-7.154 1.451-10.436-36.255-47.963-88.297-79.926-146.998-90.426v-21.533c0-.062-.008-.122-.009-.183 15.483-14.814 26.076-34.208 30.024-55.796 16.314-5.178 28.504-26.043 29.852-44.34 1.416-19.239-9.257-32.625-28.147-35.902v-16.149c4.9-2.635 9.574-5.459 13.973-8.477 4.465-3.063 7.13-8.14 7.13-13.58 0-7.39-4.889-13.658-11.603-15.743v-21.397c0-52.91-43.045-95.955-95.955-95.955h-35.04c-52.91 0-95.954 43.045-95.954 95.955v21.399c-6.713 2.084-11.603 8.353-11.603 15.743 0 5.441 2.665 10.517 7.13 13.58 4.798 3.291 9.916 6.358 15.307 9.193v15.219c-19.72 2.869-30.931 16.428-29.481 36.115 1.419 19.26 14.559 40.376 31.262 44.736 3.938 20.97 14.201 39.569 28.615 53.918-.001.059-.009.117-.009.176v23.04c-31.455 5.652-61.755 17.816-88.484 35.48-1.854-3.15-4.63-5.637-8.049-7.116l-.042-.018c14.357-22.189 32.673-41.071 54.546-56.176 3.63-2.505 5.029-7.116 3.404-11.212-1.626-4.098-5.807-6.495-10.166-5.829-36.464 5.555-69.747 25.439-91.806 54.727-7.726-1.334-15.667 2.706-18.915 10.213l-13.035 30.14c-3.246 7.506-.753 16.057 5.509 20.774-2.864 16.599-2.655 33.556.43 49.987-6.522 12.111-12.013 24.853-16.313 37.891-1.648 4.997-.794 10.522 2.286 14.781 3.07 4.246 8.033 6.782 13.274 6.782h479.231c5.241 0 10.204-2.535 13.274-6.782 3.079-4.261 3.934-9.786 2.286-14.783zm-454.844 6.662c-3.429-25.258-2.083-50.475 4.005-75.122l.039.017c2.241.969 4.577 1.428 6.876 1.428 4.269 0 8.409-1.586 11.592-4.416l180.572 78.094h-203.084zm-25.555-87.907 15.698 6.789c-5.112 19.724-7.399 39.799-6.826 59.989-8.863-20.988-11.997-44.17-8.872-66.778zm258.593 68.205c.869 2.193.831 4.592-.105 6.757-1.525 3.293-5.902 6.664-11.608 4.598l-191.41-82.781 7.009-16.206 191.411 82.782c2.164.935 3.834 2.658 4.703 4.85zm-50.89-459.992h35.04c44.693 0 81.054 36.361 81.054 81.054v20.661h-64.198c8.358-8.625 13.511-20.373 13.511-33.303 0-26.405-21.482-47.886-47.886-47.886-11.067 0-21.862 3.865-30.397 10.883-3.178 2.614-3.636 7.308-1.023 10.487 2.613 3.178 7.309 3.636 10.487 1.023 5.875-4.831 13.309-7.491 20.933-7.491 18.188 0 32.985 14.797 32.985 32.985s-14.798 32.984-32.986 32.984-32.985-14.797-32.985-32.985c0-4.115-3.336-7.451-7.451-7.451s-7.451 3.336-7.451 7.451c0 12.932 5.158 24.678 13.518 33.303h-64.205v-20.661c.001-44.693 36.361-81.054 81.054-81.054zm-92.656 118.195c0-.871.708-1.579 1.579-1.579h217.194c.871 0 1.579.708 1.579 1.579 0 .526-.246 1.01-.659 1.293-27.879 19.124-67.796 30.092-109.517 30.092-41.722 0-81.639-10.968-109.517-30.092-.412-.283-.659-.766-.659-1.293zm15.803 104.755c-.077-.001-.155.001-.233.001-9.897 0-21.513-16.243-22.654-31.743-1.158-15.729 9.95-19.867 19.473-20.568 3.497.39 9.969-1.043 10.049-7.437v-15.286c25.888 10.685 56.4 16.563 87.739 16.563 31.878 0 62.903-6.078 89.073-17.115v15.79c.055 3.482 3.261 7.965 8.715 7.485 9.523.701 20.631 4.839 19.473 20.568-1.11 15.069-12.231 31.079-22.036 31.722-3.551.233-6.441 2.944-6.9 6.473-3.897 29.923-22.567 55.511-49.942 68.445-3.72 1.758-5.311 6.199-3.554 9.92 1.477 2.585 5.417 5.663 9.92 3.554 4.403-2.08 8.606-4.449 12.604-7.064v17.948c0 12.962-10.545 23.507-23.507 23.507h-67.692c-12.962 0-23.507-10.545-23.507-23.507v-18.959c16.644 11.331 36.673 17.927 58.02 17.927 2.283 0 4.596-.076 6.872-.226 4.106-.27 7.216-3.817 6.946-7.924-.27-4.106-3.805-7.215-7.924-6.946-1.952.129-3.935.194-5.894.194-44.249 0-81.932-33.033-87.653-76.837-.487-3.714-3.652-6.485-7.388-6.485zm-49.281 67.518c-15.1 13.408-28.165 28.821-39.038 46.055l-15.695-6.788c14.329-17.754 33.375-31.35 54.733-39.267zm-87.47 79.826 13.035-30.139c.355-.822 1.008-1.182 1.365-1.324.204-.081.528-.176.921-.176.294 0 .628.053.979.205l40.121 17.352c.822.356 1.182 1.007 1.323 1.365.142.357.326 1.079-.03 1.9l-13.035 30.139c-.543 1.257-2.008 1.837-3.265 1.294l-40.12-17.35c-1.257-.544-1.837-2.009-1.294-3.266zm-9.691 108.788c-.208-.289-.414-.762-.21-1.381 2.323-7.041 5.027-13.986 8.06-20.784 2.81 7.86 6.313 15.488 10.49 22.778h-17.14c-.626-.001-.998-.334-1.2-.613z"/><ellipse cx="215.988" cy="201.105" rx="12.873" ry="12.874" transform="matrix(.707 -.707 .707 .707 -78.942 211.629)"/><ellipse cx="297.33" cy="201.105" rx="12.873" ry="12.874" transform="matrix(.707 -.707 .707 .707 -55.117 269.147)"/><path d="m226.366 260.294c0 4.115 3.336 7.451 7.451 7.451h43.586c4.115 0 7.451-3.336 7.451-7.451s-3.336-7.451-7.451-7.451h-43.586c-4.116 0-7.451 3.336-7.451 7.451z"/></g></g></svg>