<?xml version="1.0" encoding="iso-8859-1"?>
<!-- Generator: Adobe Illustrator 19.0.0, SVG Export Plug-In . SVG Version: 6.00 Build 0)  -->
<svg version="1.1" id="Capa_1" xmlns="http://www.w3.org/2000/svg" xmlns:xlink="http://www.w3.org/1999/xlink" x="0px" y="0px"
	 viewBox="0 0 512 512" style="enable-background:new 0 0 512 512;" xml:space="preserve">
<path style="fill:#444455;" d="M489.5,451h-467c-8.284,0-15-6.716-15-15l0,0c0-8.284,6.716-15,15-15h467c8.284,0,15,6.716,15,15l0,0
	C504.5,444.284,497.784,451,489.5,451z"/>
<path style="fill:#30303A;" d="M489.5,421h-30c8.284,0,15,6.716,15,15s-6.716,15-15,15h30c8.284,0,15-6.716,15-15
	S497.784,421,489.5,421z"/>
<rect x="76" y="311" style="fill:#FF5A51;" width="120" height="110"/>
<rect x="316" y="251" style="fill:#FFBD2A;" width="120" height="170"/>
<rect x="196" y="201" style="fill:#BEC950;" width="120" height="220"/>
<rect x="166" y="311" style="fill:#E75955;" width="30" height="110"/>
<rect x="406" y="251" style="fill:#FF993B;" width="30" height="170"/>
<rect x="286" y="201" style="fill:#58C357;" width="30" height="220"/>
<path style="fill:#FFD681;" d="M286,201h-60c-5.523,0-10-4.477-10-10v-4c0-8.837,7.163-16,16-16h48c8.837,0,16,7.163,16,16v4
	C296,196.523,291.523,201,286,201z"/>
<path style="fill:#FFBD2A;" d="M280,171h-30c8.837,0,16,7.164,16,16v4c0,5.523-4.477,10-10,10h30c5.523,0,10-4.477,10-10v-4
	C296,178.164,288.837,171,280,171z"/>
<path style="fill:#FFD681;" d="M256,141L256,141c-18.225,0-33-14.775-33-33V61h66v47C289,126.225,274.225,141,256,141z"/>
<path style="fill:#FFBD2A;" d="M259,61v47c0,12.822-7.318,23.928-18,29.391c4.502,2.302,9.597,3.609,15,3.609l0,0
	c18.225,0,33-14.775,33-33V61H259z"/>
<path d="M489.5,413.5h-46V251c0-4.143-3.358-7.5-7.5-7.5h-19.75c-4.142,0-7.5,3.357-7.5,7.5s3.358,7.5,7.5,7.5h12.25v155h-105v-155
	h60.75c4.142,0,7.5-3.357,7.5-7.5s-3.358-7.5-7.5-7.5H323.5V201c0-4.143-3.358-7.5-7.5-7.5h-12.7c0.118-0.819,0.2-1.649,0.2-2.5v-4
	c0-12.958-10.542-23.5-23.5-23.5h-16.5v-15.708c9.149-1.721,17.217-6.525,23.088-13.292h0.622c20.562,0,37.29-16.729,37.29-37.29
	v-3.48c0-15.706-12.451-28.552-28-29.199V61c0-4.143-3.358-7.5-7.5-7.5h-66c-4.142,0-7.5,3.357-7.5,7.5v3.531
	c-15.549,0.647-28,13.494-28,29.199v3.479c0,20.562,16.728,37.29,37.29,37.29h0.622c5.871,6.767,13.939,11.572,23.088,13.292V163.5
	H232c-12.958,0-23.5,10.542-23.5,23.5v4c0,0.851,0.082,1.681,0.2,2.5H196c-4.142,0-7.5,3.357-7.5,7.5v54.667
	c0,4.143,3.358,7.5,7.5,7.5s7.5-3.357,7.5-7.5V208.5l0,0h105l0,0l0,0v205h-105V287.833l0,0c0-4.143-3.358-7.5-7.5-7.5
	s-7.5,3.357-7.5,7.5V303.5H76c-4.142,0-7.5,3.357-7.5,7.5v9c0,4.143,3.358,7.5,7.5,7.5s7.5-3.357,7.5-7.5v-1.5h105v95h-105V352
	c0-4.143-3.358-7.5-7.5-7.5s-7.5,3.357-7.5,7.5v61.5h-46C10.093,413.5,0,423.594,0,436s10.093,22.5,22.5,22.5h467
	c12.407,0,22.5-10.094,22.5-22.5S501.907,413.5,489.5,413.5z M309.5,93.73v3.479c0,9.457-5.922,17.551-14.25,20.784
	c0.815-3.198,1.25-6.546,1.25-9.994V79.562C303.771,80.189,309.5,86.299,309.5,93.73z M202.5,97.21v-3.48
	c0-7.432,5.728-13.542,13-14.168V108c0,3.448,0.436,6.796,1.25,9.994C208.422,114.761,202.5,106.667,202.5,97.21z M230.5,108V68.5
	h51V108c0,14.061-11.439,25.5-25.5,25.5S230.5,122.061,230.5,108z M226,193.5c-1.378,0-2.5-1.121-2.5-2.5v-4
	c0-4.687,3.813-8.5,8.5-8.5h48c4.687,0,8.5,3.813,8.5,8.5v4c0,1.379-1.122,2.5-2.5,2.5H226z M489.5,443.5h-467
	c-4.136,0-7.5-3.364-7.5-7.5s3.364-7.5,7.5-7.5l0,0l0,0h467l0,0l0,0c4.136,0,7.5,3.364,7.5,7.5S493.636,443.5,489.5,443.5z"/>
<g>
</g>
<g>
</g>
<g>
</g>
<g>
</g>
<g>
</g>
<g>
</g>
<g>
</g>
<g>
</g>
<g>
</g>
<g>
</g>
<g>
</g>
<g>
</g>
<g>
</g>
<g>
</g>
<g>
</g>
</svg>
