<svg xmlns="http://www.w3.org/2000/svg" height="512pt" version="1.1" viewBox="-110 0 511 512" width="512pt">
<g id="surface1">
<path d="M 159.082031 512 C 145.601562 512 134.675781 501.074219 134.675781 487.597656 L 134.675781 292.53125 C 134.675781 279.054688 145.601562 268.128906 159.082031 268.128906 C 172.558594 268.128906 183.484375 279.054688 183.484375 292.53125 L 183.484375 487.597656 C 183.484375 501.074219 172.558594 512 159.082031 512 Z M 159.082031 512 " style=" stroke:none;fill-rule:nonzero;fill:rgb(25.490196%,29.411765%,50.980392%);fill-opacity:1;" />
<path d="M 217.992188 512 C 204.515625 512 193.589844 501.074219 193.589844 487.597656 L 193.589844 292.53125 C 193.589844 279.054688 204.515625 268.128906 217.992188 268.128906 C 231.46875 268.128906 242.394531 279.054688 242.394531 292.53125 L 242.394531 487.597656 C 242.394531 501.074219 231.46875 512 217.992188 512 Z M 217.992188 512 " style=" stroke:none;fill-rule:nonzero;fill:rgb(20.392157%,24.313725%,41.960784%);fill-opacity:1;" />
<path d="M 52.355469 370.304688 L 6.496094 349.289062 C 3.632812 347.976562 2.375 344.589844 3.6875 341.722656 L 13.808594 319.632812 C 15.125 316.765625 18.511719 315.507812 21.375 316.820312 L 67.234375 337.835938 C 70.097656 339.148438 71.359375 342.539062 70.042969 345.402344 L 59.921875 367.496094 C 58.605469 370.359375 55.21875 371.621094 52.355469 370.304688 Z M 52.355469 370.304688 " style=" stroke:none;fill-rule:nonzero;fill:rgb(22.352941%,68.235294%,58.823529%);fill-opacity:1;" />
<path d="M 45.074219 347.328125 C 47.53125 341.964844 45.851562 335.9375 41.324219 333.859375 C 36.792969 331.785156 31.128906 334.449219 28.671875 339.808594 C 26.21875 345.171875 27.898438 351.199219 32.425781 353.277344 C 36.957031 355.351562 42.617188 352.6875 45.074219 347.328125 Z M 45.074219 347.328125 " style=" stroke:none;fill-rule:nonzero;fill:rgb(15.294118%,47.058824%,40.392157%);fill-opacity:1;" />
<path d="M 61.171875 401.222656 L 11.527344 410.164062 C 8.425781 410.722656 5.457031 408.660156 4.898438 405.558594 L 0.589844 381.640625 C 0.03125 378.539062 2.09375 375.570312 5.195312 375.015625 L 54.839844 366.070312 C 57.941406 365.511719 60.910156 367.574219 61.46875 370.675781 L 65.777344 394.59375 C 66.335938 397.695312 64.273438 400.660156 61.171875 401.222656 Z M 61.171875 401.222656 " style=" stroke:none;fill-rule:nonzero;fill:rgb(22.352941%,68.235294%,58.823529%);fill-opacity:1;" />
<path d="M 42.082031 386.527344 C 41.039062 380.722656 36.214844 376.730469 31.3125 377.617188 C 26.40625 378.5 23.28125 383.921875 24.324219 389.722656 C 25.371094 395.527344 30.195312 399.519531 35.097656 398.632812 C 40 397.75 43.128906 392.328125 42.082031 386.527344 Z M 42.082031 386.527344 " style=" stroke:none;fill-rule:nonzero;fill:rgb(15.294118%,47.058824%,40.392157%);fill-opacity:1;" />
<path d="M 200.035156 354.875 L 150.777344 365.75 C 147.699219 366.429688 144.65625 364.484375 143.976562 361.40625 L 138.738281 337.675781 C 138.058594 334.597656 140 331.550781 143.078125 330.871094 L 192.335938 320 C 195.414062 319.320312 198.460938 321.265625 199.140625 324.34375 L 204.378906 348.070312 C 205.058594 351.148438 203.113281 354.195312 200.035156 354.875 Z M 200.035156 354.875 " style=" stroke:none;fill-rule:nonzero;fill:rgb(22.352941%,68.235294%,58.823529%);fill-opacity:1;" />
<path d="M 180.378906 340.925781 C 179.109375 335.167969 174.132812 331.367188 169.269531 332.441406 C 164.402344 333.515625 161.488281 339.054688 162.761719 344.816406 C 164.03125 350.574219 169.007812 354.371094 173.871094 353.296875 C 178.738281 352.222656 181.652344 346.683594 180.378906 340.925781 Z M 180.378906 340.925781 " style=" stroke:none;fill-rule:nonzero;fill:rgb(15.294118%,47.058824%,40.392157%);fill-opacity:1;" />
<path d="M 205.351562 406.609375 L 155.628906 398.109375 C 152.523438 397.578125 150.433594 394.628906 150.964844 391.523438 L 155.058594 367.566406 C 155.589844 364.460938 158.539062 362.371094 161.648438 362.902344 L 211.371094 371.40625 C 214.476562 371.9375 216.5625 374.886719 216.035156 377.992188 L 211.9375 401.945312 C 211.40625 405.054688 208.457031 407.140625 205.351562 406.609375 Z M 205.351562 406.609375 " style=" stroke:none;fill-rule:nonzero;fill:rgb(22.352941%,68.235294%,58.823529%);fill-opacity:1;" />
<path d="M 192.402344 386.269531 C 193.394531 380.457031 190.21875 375.066406 185.308594 374.226562 C 180.398438 373.386719 175.613281 377.417969 174.617188 383.230469 C 173.625 389.042969 176.800781 394.4375 181.710938 395.277344 C 186.621094 396.117188 191.410156 392.085938 192.402344 386.269531 Z M 192.402344 386.269531 " style=" stroke:none;fill-rule:nonzero;fill:rgb(15.294118%,47.058824%,40.392157%);fill-opacity:1;" />
<path d="M 292.003906 145.105469 C 291.871094 118.703125 269.945312 97.222656 243.128906 97.222656 L 134.675781 97.222656 C 134.675781 228.027344 134.675781 291.300781 134.675781 291.945312 C 134.675781 291.945312 134.675781 291.953125 134.675781 291.984375 L 134.675781 292.53125 L 242.394531 292.53125 L 242.394531 137.894531 L 243.128906 137.894531 C 247.390625 137.894531 251.289062 141.40625 251.332031 145.273438 L 251.332031 294.613281 C 251.332031 305.847656 260.4375 314.949219 271.667969 314.949219 C 282.902344 314.949219 292.003906 305.847656 292.003906 294.613281 L 292.003906 145.207031 C 292.003906 145.175781 292.003906 145.140625 292.003906 145.105469 Z M 292.003906 145.105469 " style=" stroke:none;fill-rule:nonzero;fill:rgb(10.588235%,13.333333%,29.019608%);fill-opacity:1;" />
<path d="M 134.660156 97.21875 C 107.910156 97.21875 86.035156 118.648438 85.90625 145.089844 L 85.90625 293.777344 C 85.90625 304.980469 94.988281 314.0625 106.191406 314.0625 C 117.394531 314.0625 126.476562 304.980469 126.476562 293.777344 L 126.476562 145.191406 C 126.496094 141.320312 130.398438 137.796875 134.660156 137.796875 L 134.675781 137.796875 C 134.675781 175.929688 134.675781 236.652344 134.675781 292.53125 L 188.527344 292.53125 L 188.527344 97.21875 Z M 134.660156 97.21875 " style=" stroke:none;fill-rule:nonzero;fill:rgb(14.509804%,17.647059%,36.078431%);fill-opacity:1;" />
<path d="M 219.574219 97.222656 L 188.527344 178.652344 L 157.503906 97.222656 Z M 219.574219 97.222656 " style=" stroke:none;fill-rule:nonzero;fill:rgb(100%,100%,100%);fill-opacity:1;" />
<path d="M 202.003906 124.941406 L 195.113281 112.402344 L 201.050781 101.597656 C 202.132812 99.632812 200.710938 97.21875 198.464844 97.21875 L 178.546875 97.21875 C 176.304688 97.21875 174.875 99.628906 175.957031 101.597656 L 181.917969 112.441406 L 175.042969 124.941406 C 174.089844 126.675781 173.78125 128.6875 174.167969 130.621094 L 178.410156 152.148438 L 188.527344 178.652344 L 198.613281 152.144531 L 202.878906 130.625 C 203.265625 128.6875 202.957031 126.675781 202.003906 124.941406 Z M 202.003906 124.941406 " style=" stroke:none;fill-rule:nonzero;fill:rgb(98.039216%,31.372549%,23.529412%);fill-opacity:1;" />
<path d="M 202.003906 124.941406 L 195.113281 112.402344 L 201.050781 101.597656 C 202.132812 99.632812 200.710938 97.21875 198.464844 97.21875 L 188.527344 97.21875 L 188.527344 178.652344 L 198.613281 152.144531 L 202.878906 130.625 C 203.265625 128.6875 202.957031 126.675781 202.003906 124.941406 Z M 202.003906 124.941406 " style=" stroke:none;fill-rule:nonzero;fill:rgb(87.843137%,19.607843%,11.372549%);fill-opacity:1;" />
<path d="M 230.078125 41.933594 C 230.078125 65.09375 211.304688 83.867188 188.144531 83.867188 C 164.988281 83.867188 146.210938 65.09375 146.210938 41.933594 C 146.210938 18.773438 164.988281 0 188.144531 0 C 211.304688 0 230.078125 18.773438 230.078125 41.933594 Z M 230.078125 41.933594 " style=" stroke:none;fill-rule:nonzero;fill:rgb(100%,71.372549%,61.960784%);fill-opacity:1;" />
<path d="M 292.011719 284.125 L 292.011719 294.613281 C 292.011719 305.847656 282.90625 314.953125 271.675781 314.953125 C 260.441406 314.953125 251.335938 305.847656 251.335938 294.613281 L 251.335938 284.125 Z M 292.011719 284.125 " style=" stroke:none;fill-rule:nonzero;fill:rgb(100%,100%,100%);fill-opacity:1;" />
<path d="M 292.011719 294.089844 L 292.011719 294.613281 C 292.011719 305.847656 282.90625 314.949219 271.675781 314.949219 C 260.441406 314.949219 251.335938 305.847656 251.335938 294.613281 L 251.335938 294.089844 Z M 292.011719 294.089844 " style=" stroke:none;fill-rule:nonzero;fill:rgb(100%,71.372549%,61.960784%);fill-opacity:1;" />
<path d="M 134.675781 254.574219 L 168.8125 254.574219 L 168.8125 237.558594 L 134.675781 237.558594 C 134.675781 243.949219 134.675781 249.589844 134.675781 254.574219 Z M 134.675781 254.574219 " style=" stroke:none;fill-rule:nonzero;fill:rgb(10.588235%,13.333333%,29.019608%);fill-opacity:1;" />
<path d="M 207.382812 237.558594 L 242.394531 237.558594 L 242.394531 254.574219 L 207.382812 254.574219 Z M 207.382812 237.558594 " style=" stroke:none;fill-rule:nonzero;fill:rgb(7.843137%,10.196078%,23.137255%);fill-opacity:1;" />
<path d="M 135.835938 354.277344 L 78.394531 354.277344 C 72.78125 354.277344 68.226562 349.722656 68.226562 344.105469 L 68.226562 297.714844 C 68.226562 292.097656 72.78125 287.542969 78.394531 287.542969 L 135.835938 287.542969 C 141.453125 287.542969 146.007812 292.097656 146.007812 297.714844 L 146.007812 344.105469 C 146.007812 349.722656 141.453125 354.277344 135.835938 354.277344 Z M 88.566406 333.9375 L 125.664062 333.9375 L 125.664062 307.886719 L 88.566406 307.886719 Z M 88.566406 333.9375 " style=" stroke:none;fill-rule:nonzero;fill:rgb(58.823529%,31.372549%,15.686275%);fill-opacity:1;" />
<path d="M 85.90625 283.839844 L 85.90625 293.777344 C 85.90625 304.980469 94.988281 314.066406 106.191406 314.066406 C 117.394531 314.066406 126.476562 304.980469 126.476562 293.777344 L 126.476562 283.839844 Z M 85.90625 283.839844 " style=" stroke:none;fill-rule:nonzero;fill:rgb(100%,100%,100%);fill-opacity:1;" />
<path d="M 85.90625 293.777344 C 85.90625 304.980469 94.988281 314.0625 106.191406 314.0625 C 117.394531 314.0625 126.476562 304.980469 126.476562 293.777344 Z M 85.90625 293.777344 " style=" stroke:none;fill-rule:nonzero;fill:rgb(100%,71.372549%,61.960784%);fill-opacity:1;" />
<path d="M 48.832031 430.5 L 165.402344 430.5 C 172.128906 430.5 177.582031 425.046875 177.582031 418.316406 L 177.582031 338.851562 C 177.582031 332.121094 172.128906 326.667969 165.402344 326.667969 L 48.832031 326.667969 C 42.101562 326.667969 36.648438 332.121094 36.648438 338.851562 L 36.648438 418.316406 C 36.648438 425.046875 42.101562 430.5 48.832031 430.5 Z M 48.832031 430.5 " style=" stroke:none;fill-rule:nonzero;fill:rgb(72.941176%,40.392157%,27.45098%);fill-opacity:1;" />
<path d="M 105.785156 399.625 C 98.128906 399.367188 91.878906 395.414062 91.878906 391.332031 C 91.878906 389.160156 93.792969 385.972656 96.214844 385.972656 C 98.894531 385.972656 101.0625 389.734375 105.785156 390.566406 L 105.785156 380.230469 C 99.914062 377.996094 93.027344 375.253906 93.027344 367.085938 C 93.027344 358.984375 99.023438 355.09375 105.785156 354.136719 L 105.785156 352.351562 C 105.785156 351.457031 106.804688 350.628906 108.210938 350.628906 C 109.421875 350.628906 110.632812 351.457031 110.632812 352.351562 L 110.632812 353.945312 C 114.589844 354.070312 122.050781 355.09375 122.050781 359.496094 C 122.050781 361.21875 120.90625 364.726562 118.097656 364.726562 C 115.992188 364.726562 114.78125 362.683594 110.632812 362.367188 L 110.632812 371.679688 C 116.4375 373.847656 123.199219 376.847656 123.199219 385.460938 C 123.199219 393.371094 118.097656 398.15625 110.632812 399.367188 L 110.632812 401.21875 C 110.632812 402.113281 109.421875 402.941406 108.207031 402.941406 C 106.804688 402.941406 105.785156 402.113281 105.785156 401.21875 Z M 106.421875 370.148438 L 106.421875 362.558594 C 103.550781 363.132812 102.339844 364.601562 102.339844 366.128906 C 102.339844 367.980469 104 369.128906 106.421875 370.148438 Z M 109.996094 381.953125 L 109.996094 390.5 C 112.164062 389.992188 113.886719 388.777344 113.886719 386.480469 C 113.886719 384.375 112.292969 383.035156 109.996094 381.953125 Z M 109.996094 381.953125 " style=" stroke:none;fill-rule:nonzero;fill:rgb(50.980392%,19.607843%,7.843137%);fill-opacity:1;" />
</g>
</svg>