<?xml version="1.0" encoding="iso-8859-1"?>
<!-- Generator: Adobe Illustrator 19.0.0, SVG Export Plug-In . SVG Version: 6.00 Build 0)  -->
<svg version="1.1" id="Capa_1" xmlns="http://www.w3.org/2000/svg" xmlns:xlink="http://www.w3.org/1999/xlink" x="0px" y="0px"
	 viewBox="0 0 512.001 512.001" style="enable-background:new 0 0 512.001 512.001;" xml:space="preserve">
<g>
	<g transform="translate(1 1)">
		<polygon style="fill:#CFD8DC;" points="297.667,365.934 297.667,340.334 297.667,92.867 220.867,92.867 220.867,330.264 		"/>
		<polygon style="fill:#607D8B;" points="289.134,297.667 229.4,272.067 229.4,127 289.134,127 		"/>
		<g>
			<path style="fill:#CFD8DC;" d="M212.334,67.267h-153.6c-9.054-0.003-17.737,3.593-24.139,9.995
				c-6.402,6.402-9.997,15.085-9.995,24.139v145.067l101.205,45.995L229.4,339.566V84.334
				C229.373,74.919,221.748,67.295,212.334,67.267z"/>
			<polygon style="fill:#CFD8DC;" points="229.4,127 229.4,313.198 125.806,266.094 127,263.534 			"/>
		</g>
		<g>
			<path style="fill:#607D8B;" d="M306.2,348.867V408.6l-76.032,42.667H50.2l-39.424-31.573c-2.037-1.61-3.23-4.06-3.243-6.656
				V225.56c0.008-2.891,1.479-5.582,3.908-7.149c2.429-1.568,5.487-1.8,8.124-0.616l5.035,2.304l101.205,45.995L229.4,313.198
				L306.2,348.867z"/>
			<path style="fill:#607D8B;" d="M361.667,16.067C373.449,16.067,383,25.618,383,37.4v55.467h-42.667V37.4
				C340.334,25.618,349.885,16.067,361.667,16.067z"/>
			<path style="fill:#607D8B;" d="M451.267,84.334v366.933H331.8l-42.667-58.965V92.867c-0.009-6.792,2.685-13.309,7.488-18.112
				c4.803-4.803,11.32-7.497,18.112-7.488H434.2C443.615,67.295,451.24,74.919,451.267,84.334z"/>
		</g>
		<path style="fill:#CFD8DC;" d="M425.667,84.334v366.933H331.8l-42.667-58.965V92.867c-0.009-6.792,2.685-13.309,7.488-18.112
			c4.803-4.803,11.32-7.497,18.112-7.488H408.6C418.015,67.295,425.64,74.919,425.667,84.334z"/>
		<path style="fill:#283593;" d="M331.8,442.734c-0.022,28.268-22.932,51.178-51.2,51.2c-4.317-0.013-8.616-0.558-12.8-1.621
			c-22.602-5.818-38.4-26.197-38.4-49.536s15.798-43.718,38.4-49.536c4.172-1.134,8.477-1.708,12.8-1.707
			C308.868,391.556,331.778,414.466,331.8,442.734z"/>
		<path style="fill:#3F51B5;" d="M306.2,442.734c-0.054,23.33-15.825,43.692-38.4,49.579c-22.602-5.818-38.4-26.197-38.4-49.536
			s15.798-43.718,38.4-49.536C290.38,399.065,306.169,419.415,306.2,442.734z"/>
		<path style="fill:#283593;" d="M152.6,442.734c-0.022,28.268-22.932,51.178-51.2,51.2c-4.317-0.013-8.616-0.558-12.8-1.621
			c-22.602-5.818-38.4-26.197-38.4-49.536s15.798-43.718,38.4-49.536c4.172-1.134,8.477-1.708,12.8-1.707
			C129.668,391.556,152.578,414.466,152.6,442.734z"/>
		<path style="fill:#3F51B5;" d="M127,442.734c-0.054,23.33-15.825,43.692-38.4,49.579c-22.602-5.818-38.4-26.197-38.4-49.536
			s15.798-43.718,38.4-49.536C111.18,399.065,126.969,419.415,127,442.734z"/>
		<path style="fill:#00838F;" d="M451.267,109.934v153.6h-73.301c-2.237-0.017-4.38-0.905-5.973-2.475l-37.717-37.717
			c-1.57-1.594-2.457-3.736-2.475-5.973v-81.835c-0.009-6.792,2.685-13.309,7.488-18.112c4.803-4.803,11.32-7.497,18.112-7.488
			L451.267,109.934z"/>
		<path style="fill:#00BCD4;" d="M425.667,109.934v153.6h-47.701c-2.237-0.017-4.38-0.905-5.973-2.475l-37.717-37.717
			c-1.57-1.594-2.457-3.736-2.475-5.973v-81.835c-0.009-6.792,2.685-13.309,7.488-18.112c4.803-4.803,11.32-7.497,18.112-7.488
			L425.667,109.934z"/>
		<path style="fill:#607D8B;" d="M451.267,365.934H357.4c-14.138,0-25.6-11.462-25.6-25.6V306.2c0-4.713,3.82-8.533,8.533-8.533
			h65.273c1.938,0,3.818,0.659,5.331,1.87l40.329,32.263V365.934z"/>
		<path style="fill:#FFEB3A;" d="M481.134,263.534h12.8c4.713,0,8.533,3.821,8.533,8.533v42.667c0,4.713-3.82,8.533-8.533,8.533
			h-12.8c-16.495,0-29.867-13.372-29.867-29.867S464.639,263.534,481.134,263.534z"/>
		<path style="fill:#37474F;" d="M502.467,434.2v42.667c-0.028,9.414-7.652,17.039-17.067,17.067H383
			c-9.414-0.028-17.039-7.652-17.067-17.067V434.2c-0.003-9.054,3.593-17.737,9.995-24.139s15.085-9.997,24.139-9.995h68.267
			c9.054-0.003,17.737,3.593,24.139,9.995C498.874,416.463,502.47,425.147,502.467,434.2z"/>
		<path style="fill:#607D8B;" d="M476.867,434.2v42.667c-0.028,9.414-7.653,17.039-17.067,17.067H383
			c-9.414-0.028-17.039-7.652-17.067-17.067V434.2c-0.003-9.054,3.593-17.737,9.995-24.139s15.085-9.997,24.139-9.995h42.667
			c9.054-0.003,17.737,3.593,24.139,9.995C473.274,416.463,476.87,425.147,476.867,434.2z"/>
		<g>
			<circle style="fill:#CFD8DC;" cx="101.4" cy="442.734" r="17.067"/>
			<circle style="fill:#CFD8DC;" cx="280.6" cy="442.734" r="17.067"/>
		</g>
		<path style="fill:#37474F;" d="M502.467,442.734V459.8H391.534c-4.713,0-8.533-3.82-8.533-8.533s3.821-8.533,8.533-8.533H502.467z
			"/>
	</g>
	<g>
		<path d="M102.4,418.134c-14.138,0-25.6,11.462-25.6,25.6c0,14.138,11.462,25.6,25.6,25.6s25.6-11.462,25.6-25.6
			C127.985,429.602,116.532,418.149,102.4,418.134z M102.4,452.267c-4.713,0-8.533-3.821-8.533-8.533s3.821-8.533,8.533-8.533
			c4.713,0,8.533,3.82,8.533,8.533C110.928,448.444,107.111,452.261,102.4,452.267z"/>
		<path d="M281.6,418.134c-14.138,0-25.6,11.462-25.6,25.6c0,14.138,11.462,25.6,25.6,25.6s25.6-11.462,25.6-25.6
			C307.185,429.602,295.733,418.149,281.6,418.134z M281.6,452.267c-4.713,0-8.533-3.821-8.533-8.533s3.82-8.533,8.533-8.533
			s8.533,3.82,8.533,8.533C290.128,448.444,286.311,452.261,281.6,452.267z"/>
		<path d="M332.8,273.067c4.713,0,8.533-3.821,8.533-8.533c0-4.713-3.82-8.533-8.533-8.533h-8.533c-4.713,0-8.533,3.821-8.533,8.533
			c0,4.713,3.821,8.533,8.533,8.533H332.8z"/>
		<path d="M494.934,256h-12.8c-7.6-0.005-15.028,2.258-21.333,6.501V85.334c-0.015-14.132-11.468-25.585-25.6-25.6h-42.667V38.4
			c0-16.495-13.372-29.867-29.867-29.867c-16.495,0-29.867,13.372-29.867,29.867v21.333h-17.067
			c-15.521,0.047-29.052,10.569-32.922,25.6h-43.878c-0.015-14.132-11.468-25.585-25.6-25.6h-153.6
			C36.181,59.761,17.095,78.848,17.067,102.4v107.222c-4.527-0.057-8.886,1.71-12.096,4.902c-3.21,3.192-5.002,7.541-4.971,12.068
			v187.442c-0.012,5.187,2.349,10.096,6.409,13.325l37.987,30.391c2.63,10.889,8.271,20.818,16.279,28.651H8.534
			c-4.713,0-8.533,3.82-8.533,8.533s3.821,8.533,8.533,8.533h494.933c3.468,0.007,6.593-2.09,7.903-5.301
			c1.309-3.211,0.541-6.895-1.942-9.316c1.673-3.421,2.553-7.175,2.573-10.983V435.2c-0.028-23.553-19.114-42.639-42.667-42.667
			H460.8V326.3c6.305,4.242,13.734,6.506,21.333,6.501h12.8c9.422-0.009,17.057-7.645,17.067-17.067v-42.667
			C511.991,263.645,504.355,256.01,494.934,256z M443.734,256H379l-37.667-37.667v-81.8c0.009-9.422,7.645-17.057,17.067-17.067
			h85.333V256z M349.867,38.4c0-7.069,5.731-12.8,12.8-12.8s12.8,5.731,12.8,12.8v21.333h-25.6V38.4z M281.6,486.4
			c-23.564,0-42.667-19.103-42.667-42.667c0-23.564,19.103-42.667,42.667-42.667s42.667,19.103,42.667,42.667
			C324.239,467.286,305.153,486.373,281.6,486.4z M139.46,263.476l82.407-109.877v147.332L139.46,263.476z M281.6,285.725
			l-42.667-18.283V136.534H281.6V285.725z M238.934,286.007l42.667,18.285v23.788l-42.667-19.393V286.007z M281.6,102.4v17.067
			h-42.667V102.4H281.6z M59.734,76.8h153.6c4.71,0.006,8.527,3.823,8.533,8.533v39.823l-98.316,131.088l-89.418-40.641V102.4
			C34.149,88.268,45.602,76.816,59.734,76.8z M17.067,226.592l5.204,2.365l0.016,0.007l204.744,93.062l0.09,0.041l54.48,24.762V384
			c-32.974,0.037-59.696,26.759-59.733,59.733h-59.733c0.019-31.299-24.139-57.299-55.355-59.575s-58.89,19.945-63.411,50.916
			l-26.301-21.041V226.592z M59.734,443.734c0-23.564,19.103-42.667,42.667-42.667s42.667,19.103,42.667,42.667
			c0,23.564-19.103,42.667-42.667,42.667C78.848,486.373,59.761,467.286,59.734,443.734z M144.125,486.4
			c7.252-7.081,12.583-15.891,15.493-25.6h64.765c2.91,9.709,8.241,18.519,15.493,25.6H144.125z M338.818,460.8H358.4v17.067
			c0.029,2.914,0.561,5.801,1.573,8.533h-36.648C330.577,479.319,335.908,470.509,338.818,460.8z M375.467,477.867V460.8h17.067
			v25.6H384C379.29,486.394,375.473,482.577,375.467,477.867z M426.667,460.8v25.6H409.6v-25.6H426.667z M452.267,460.8h8.533v25.6
			h-17.067v-25.6H452.267z M477.867,486.4v-25.6h17.067v17.067c-0.006,4.71-3.823,8.527-8.533,8.533H477.867z M494.934,435.2v8.533
			H375.467V435.2c0.015-14.132,11.468-25.585,25.6-25.6h68.267C483.466,409.616,494.918,421.068,494.934,435.2z M401.067,392.534
			c-23.553,0.028-42.639,19.114-42.667,42.667v8.533h-17.067c-0.039-26.398-17.377-49.649-42.667-57.218V93.867
			c0.009-9.422,7.645-17.057,17.067-17.067H435.2c4.71,0.006,8.527,3.823,8.533,8.533V102.4H358.4
			c-18.842,0.022-34.112,15.291-34.133,34.133v81.8c-0.012,4.529,1.788,8.874,5,12.067l37.667,37.667
			c3.193,3.212,7.538,5.012,12.067,5h64.733v41.98l-26.458-21.167c-3.028-2.422-6.789-3.743-10.667-3.746h-65.275
			c-9.422,0.009-17.057,7.645-17.067,17.067v34.133c0.022,18.842,15.291,34.112,34.133,34.133h85.333v17.067H401.067z
			 M443.734,358.4H358.4c-9.422-0.009-17.057-7.645-17.067-17.067V307.2h65.275l37.125,29.7V358.4z M482.134,315.734
			c-11.782,0-21.333-9.551-21.333-21.333c0-11.782,9.551-21.333,21.333-21.333h12.8l0.012,42.667H482.134z"/>
		<path d="M38.85,272.167l51.2,25.6c4.214,2.094,9.328,0.383,11.432-3.826c2.104-4.209,0.405-9.327-3.799-11.441l-51.2-25.6
			c-2.728-1.372-5.982-1.182-8.532,0.498c-2.55,1.681-4.007,4.596-3.822,7.644S36.116,270.808,38.85,272.167z"/>
		<path d="M38.85,306.3l51.2,25.6c4.214,2.094,9.328,0.383,11.432-3.826c2.104-4.209,0.405-9.327-3.799-11.441l-51.2-25.6
			c-2.728-1.372-5.982-1.182-8.532,0.499c-2.55,1.681-4.007,4.596-3.822,7.644C34.316,302.224,36.116,304.941,38.85,306.3z"/>
		<path d="M90.05,366.034c4.214,2.094,9.328,0.383,11.432-3.826c2.104-4.209,0.405-9.327-3.799-11.441l-51.2-25.6
			c-2.728-1.372-5.982-1.182-8.532,0.499s-4.007,4.596-3.822,7.644c0.185,3.048,1.985,5.765,4.72,7.124L90.05,366.034z"/>
		<path d="M366.934,153.6H384c4.713,0,8.533-3.821,8.533-8.533s-3.821-8.533-8.533-8.533h-17.067c-4.713,0-8.533,3.821-8.533,8.533
			S362.221,153.6,366.934,153.6z"/>
		<path d="M418.134,153.6c2.27,0.022,4.453-0.87,6.058-2.475c1.605-1.605,2.497-3.788,2.475-6.058
			c-0.015-0.573-0.072-1.144-0.171-1.708c-0.095-0.535-0.268-1.053-0.512-1.537c-0.188-0.543-0.448-1.058-0.771-1.533
			c-0.312-0.448-0.653-0.876-1.021-1.279c-2.065-1.977-4.958-2.835-7.767-2.304c-0.535,0.091-1.053,0.263-1.537,0.508
			c-0.524,0.172-1.014,0.433-1.45,0.771c-0.512,0.341-0.938,0.683-1.362,1.025c-0.341,0.425-0.683,0.85-1.025,1.279
			c-0.323,0.475-0.582,0.991-0.771,1.533c-0.246,0.484-0.417,1.002-0.508,1.537c-0.1,0.564-0.158,1.135-0.171,1.709
			c-0.022,2.27,0.87,4.453,2.475,6.058C413.681,152.73,415.864,153.622,418.134,153.6z"/>
	</g>
</g>
<g>
</g>
<g>
</g>
<g>
</g>
<g>
</g>
<g>
</g>
<g>
</g>
<g>
</g>
<g>
</g>
<g>
</g>
<g>
</g>
<g>
</g>
<g>
</g>
<g>
</g>
<g>
</g>
<g>
</g>
</svg>
