<?xml version="1.0" encoding="iso-8859-1"?>
<!-- Generator: Adobe Illustrator 19.0.0, SVG Export Plug-In . SVG Version: 6.00 Build 0)  -->
<svg version="1.1" id="Capa_1" xmlns="http://www.w3.org/2000/svg" xmlns:xlink="http://www.w3.org/1999/xlink" x="0px" y="0px"
	 viewBox="0 0 511.999 511.999" style="enable-background:new 0 0 511.999 511.999;" xml:space="preserve">
<path style="fill:#60C28E;" d="M7.5,296.868v-31.402c0-14.696,4.104-29.099,11.85-41.588l51.597-83.193
	c16.618-26.794,45.907-43.094,77.436-43.094h91.468c8.018,0,15.867,2.299,22.618,6.624l47.886,30.678V317.92H28.551
	C16.925,317.92,7.5,308.495,7.5,296.868z"/>
<path style="fill:#59B382;" d="M310.354,317.92v-33.462C189.117,257.269,131.998,173.641,152.326,97.592h-3.944
	c-31.529,0-60.818,16.299-77.436,43.093L19.35,223.878C11.604,236.367,7.5,250.77,7.5,265.467v31.402
	c0,11.626,9.425,21.051,21.051,21.051H310.354z"/>
<path style="fill:#495059;" d="M214.898,244.044h-54.803c-19.444,0-35.207,15.763-35.207,35.207v38.668h185.467V134.893
	l-13.106-8.396l-51.094,98.544C240.101,236.715,228.048,244.044,214.898,244.044z"/>
<g>
	<path style="fill:#FFFFFF;" d="M146.142,210.439h-19.504c-5.796,0-10.986-2.997-13.884-8.016c-2.898-5.02-2.897-11.012,0-16.031
		l16.144-27.963c2.071-3.587,6.657-4.817,10.245-2.745c3.587,2.071,4.816,6.658,2.745,10.245l-16.144,27.963
		c-0.074,0.128-0.298,0.516,0,1.031c0.297,0.516,0.746,0.516,0.893,0.516h19.504c4.142,0,7.5,3.358,7.5,7.5
		S150.284,210.439,146.142,210.439z"/>
	<path style="fill:#FFFFFF;" d="M191.216,210.439h-32.289c-4.142,0-7.5-3.358-7.5-7.5s3.358-7.5,7.5-7.5h32.289
		c0.147,0,0.595,0,0.893-0.516s0.074-0.904,0-1.031l-10.75-18.62c-2.071-3.587-0.842-8.174,2.745-10.245
		c3.587-2.072,8.174-0.842,10.245,2.745l10.75,18.62c2.898,5.019,2.898,11.012,0,16.031
		C202.202,207.443,197.012,210.439,191.216,210.439z"/>
	<path style="fill:#FFFFFF;" d="M182.467,169.682c-2.592,0-5.113-1.345-6.502-3.751l-16.145-27.963
		c-0.074-0.128-0.298-0.516-0.894-0.516c-0.595,0-0.819,0.388-0.893,0.516l-10.75,18.62c-2.071,3.587-6.658,4.815-10.245,2.745
		c-3.587-2.071-4.816-6.658-2.745-10.245l10.75-18.62c2.898-5.019,8.088-8.016,13.883-8.016c5.796,0,10.986,2.996,13.884,8.016
		l16.145,27.963c2.071,3.587,0.842,8.174-2.745,10.245C185.029,169.356,183.739,169.682,182.467,169.682z"/>
	<path style="fill:#FFFFFF;" d="M171.879,221.602c-1.561,0-3.135-0.486-4.482-1.492l-11.771-8.792
		c-2.629-1.964-4.199-5.096-4.199-8.378c0-3.282,1.57-6.414,4.2-8.378l11.77-8.792c3.318-2.479,8.018-1.798,10.497,1.521
		c2.479,3.318,1.798,8.018-1.521,10.497l-6.897,5.152l6.897,5.152c3.318,2.479,4,7.179,1.521,10.497
		C176.421,220.561,174.165,221.602,171.879,221.602z"/>
	<path style="fill:#FFFFFF;" d="M180.975,170.07c-1.402,0-2.807-0.279-4.12-0.843l-13.5-5.798c-3.806-1.634-5.566-6.045-3.931-9.851
		c1.635-3.807,6.046-5.565,9.851-3.932l7.911,3.397l1.013-8.549c0.487-4.113,4.216-7.054,8.33-6.565
		c4.113,0.487,7.053,4.217,6.565,8.33l-1.729,14.59c-0.386,3.259-2.314,6.185-5.156,7.825
		C184.605,169.602,182.792,170.07,180.975,170.07z"/>
	<path style="fill:#FFFFFF;" d="M138.571,186.483c-3.748,0-6.987-2.805-7.438-6.619l-1.013-8.549l-7.911,3.398
		c-3.806,1.634-8.216-0.126-9.851-3.932c-1.634-3.806,0.126-8.216,3.932-9.851l13.5-5.797c3.015-1.295,6.513-1.088,9.355,0.553
		c2.842,1.641,4.769,4.566,5.155,7.825l1.729,14.59c0.487,4.113-2.452,7.843-6.565,8.33
		C139.164,186.465,138.866,186.483,138.571,186.483z"/>
	<path style="fill:#FFFFFF;" d="M191.216,210.439h-32.289c-4.142,0-7.5-3.358-7.5-7.5s3.358-7.5,7.5-7.5h32.289
		c0.147,0,0.595,0,0.893-0.516s0.074-0.904,0-1.031l-9.752-16.891c-2.071-3.587-0.842-8.174,2.745-10.245
		c3.587-2.072,8.173-0.843,10.245,2.745l9.752,16.891c2.898,5.019,2.898,11.012,0,16.031
		C202.202,207.443,197.012,210.439,191.216,210.439z"/>
</g>
<g>
	<path style="fill:#80D3AE;" d="M93.772,301.911c-4.142,0-7.5-3.358-7.5-7.5v-45.553c0-4.142,3.358-7.5,7.5-7.5s7.5,3.358,7.5,7.5
		v45.553C101.272,298.553,97.915,301.911,93.772,301.911z"/>
	<path style="fill:#80D3AE;" d="M62.407,301.911c-4.142,0-7.5-3.358-7.5-7.5v-45.553c0-4.142,3.358-7.5,7.5-7.5s7.5,3.358,7.5,7.5
		v45.553C69.907,298.553,66.549,301.911,62.407,301.911z"/>
</g>
<path style="fill:#60C28E;" d="M428.72,97.592h-88.416c-16.541,0-29.949,13.409-29.949,29.949v151.455H504.5v-70.762
	c0-17.367-4.353-34.457-12.662-49.708l-18.882-34.659C464.133,107.671,447.164,97.592,428.72,97.592z"/>
<g>
	<path style="fill:#80D3AE;" d="M368.962,177.882c-4.142,0-7.5-3.358-7.5-7.5v-37.027c0-4.142,3.358-7.5,7.5-7.5s7.5,3.358,7.5,7.5
		v37.027C376.462,174.523,373.104,177.882,368.962,177.882z"/>
	<path style="fill:#80D3AE;" d="M343.326,177.882c-4.142,0-7.5-3.358-7.5-7.5v-37.027c0-4.142,3.358-7.5,7.5-7.5s7.5,3.358,7.5,7.5
		v37.027C350.826,174.523,347.468,177.882,343.326,177.882z"/>
</g>
<path style="fill:#FADA6D;" d="M478.887,227.529H504.5v51.467h-41.845V243.76C462.655,234.796,469.922,227.529,478.887,227.529z"/>
<path style="fill:#C7C9CC;" d="M483.913,352.229H64.945c-11.37,0-20.587-9.217-20.587-20.587v-32.059
	c0-11.37,9.217-20.587,20.587-20.587h227.286c11.548,0,22.565-4.849,30.365-13.365l8.913-9.731
	c9.951-10.865,25.092-15.342,39.352-11.636l133.64,34.731v52.645C504.5,343.012,495.283,352.229,483.913,352.229z"/>
<path style="fill:#B2B5B8;" d="M306.363,276.484c-4.483,1.638-9.258,2.512-14.132,2.512H64.945c-11.37,0-20.587,9.217-20.587,20.587
	v32.059c0,11.37,9.217,20.587,20.587,20.587h302.669C333.903,328.714,315.108,299.766,306.363,276.484z"/>
<circle style="fill:#495059;" cx="380.91" cy="354.41" r="59.997"/>
<circle style="fill:#C7C9CC;" cx="380.91" cy="354.41" r="27.21"/>
<circle style="fill:#495059;" cx="146.97" cy="354.41" r="59.997"/>
<circle style="fill:#C7C9CC;" cx="146.97" cy="354.41" r="27.21"/>
<path style="fill:#E0F7FF;" d="M406.501,176.712l96.452,13.733c-1.935-11.136-5.669-21.923-11.115-31.919l-13.714-25.172h-69.803
	c-7.13,0-12.911,5.78-12.911,12.911v17.665C395.41,170.358,400.138,175.807,406.501,176.712z"/>
<path d="M346.196,354.41c0,19.142,15.573,34.715,34.715,34.715s34.715-15.573,34.715-34.715s-15.573-34.715-34.715-34.715
	S346.196,335.268,346.196,354.41z M400.627,354.41c0,10.871-8.844,19.715-19.715,19.715s-19.715-8.844-19.715-19.715
	s8.844-19.715,19.715-19.715S400.627,343.539,400.627,354.41z M510.378,189.421c-0.021-0.154-0.049-0.305-0.079-0.457
	c-2.091-11.877-6.088-23.404-11.875-34.026l-13.693-25.134c-0.009-0.017-0.018-0.033-0.027-0.05l-5.162-9.475
	c-10.144-18.62-29.618-30.187-50.822-30.187h-88.417c-18.592,0-34.056,13.621-36.955,31.407l-1.984-1.271
	c-0.001-0.001-0.003-0.002-0.005-0.003l-34.846-22.324c-7.974-5.109-17.194-7.809-26.664-7.809h-91.468
	c-21.647,0-43.017,7.274-60.172,20.483c-3.282,2.527-3.895,7.236-1.368,10.518c2.527,3.283,7.237,3.895,10.519,1.368
	c14.547-11.2,32.667-17.369,51.021-17.369h91.468c6.596,0,13.018,1.881,18.572,5.439l29.017,18.59l-47.944,92.468
	c-4.782,9.224-14.208,14.954-24.598,14.954h-54.804c-20.837,0-38.307,15.114-41.98,34.953h-53.17
	c-15.487,0-28.086,12.6-28.086,28.086v10.836h-8.308c-7.472,0-13.551-6.079-13.551-13.551v-31.402
	c0-13.31,3.708-26.324,10.723-37.635l50.097-80.775c2.183-3.52,1.1-8.143-2.42-10.327c-3.522-2.184-8.145-1.1-10.327,2.42
	l-50.097,80.775C4.487,233.613,0,249.36,0,265.467v31.402c0,15.743,12.808,28.551,28.551,28.551h8.308v6.222
	c0,15.487,12.6,28.086,28.086,28.086h14.759c2.724,34.739,31.842,62.179,67.268,62.179s64.545-27.44,67.268-62.179h99.403
	c2.724,34.739,31.842,62.179,67.268,62.179c13.847,0,27.156-4.164,38.489-12.043c3.401-2.365,4.241-7.038,1.877-10.439
	c-2.365-3.401-7.037-4.242-10.439-1.877c-8.807,6.123-19.155,9.359-29.926,9.359c-28.947,0-52.497-23.55-52.497-52.497
	c0-28.947,23.55-52.498,52.497-52.498c28.947,0,52.498,23.55,52.498,52.498c0,6.438-1.15,12.722-3.418,18.678
	c-1.474,3.871,0.469,8.204,4.34,9.678c3.87,1.474,8.204-0.469,9.678-4.34c2.289-6.014,3.68-12.284,4.179-18.697h35.724
	c15.487,0,28.086-12.6,28.086-28.086V208.233C512,201.921,511.444,195.624,510.378,189.421z M473.67,140.854l11.582,21.26
	c3.352,6.153,6.014,12.656,7.951,19.367l-85.645-12.194c-2.65-0.377-4.648-2.68-4.648-5.356v-17.666
	c0-2.983,2.427-5.411,5.411-5.411H473.67z M160.095,251.544h54.804c16.015,0,30.542-8.832,37.914-23.049l47.311-91.247l2.731,1.75
	v130.766c-3.397,1.132-6.982,1.734-10.624,1.734h-158.72C136.883,259.992,147.548,251.544,160.095,251.544z M146.972,406.907
	c-28.947,0-52.498-23.55-52.498-52.497c0-28.947,23.55-52.498,52.498-52.498c28.947,0,52.497,23.55,52.497,52.498
	C199.47,383.357,175.919,406.907,146.972,406.907z M497,331.642c0,7.216-5.871,13.086-13.086,13.086h-36.209
	c-4.711-32.647-32.862-57.816-66.793-57.816s-62.082,25.17-66.793,57.816H213.765c-4.711-32.647-32.862-57.816-66.793-57.816
	s-62.082,25.17-66.793,57.816H64.945c-7.216,0-13.086-5.871-13.086-13.086v-32.059c0-7.216,5.871-13.086,13.086-13.086h227.286
	c7.314,0,14.467-1.676,20.953-4.77c0.262-0.107,0.517-0.225,0.763-0.359c5.292-2.637,10.116-6.234,14.179-10.67l8.913-9.73
	c8.096-8.84,20.332-12.458,31.934-9.443L497,284.797V331.642z M497,269.299l-26.845-6.977v-18.561c0-4.815,3.917-8.732,8.732-8.732
	H497V269.299z M497,220.029h-18.113c-13.086,0-23.732,10.646-23.732,23.732v14.663l-82.408-21.417
	c-16.991-4.417-34.913,0.883-46.769,13.829l-8.123,8.868V127.541c0-12.378,10.071-22.449,22.449-22.449h88.417
	c15.086,0,28.971,7.918,36.706,20.762h-57.105c-11.254,0-20.411,9.156-20.411,20.411v17.666c0,10.097,7.538,18.784,17.534,20.207
	l90.894,12.941c0.433,3.698,0.662,7.423,0.662,11.155L497,220.029L497,220.029z M398.475,203.038h-18.263
	c-4.142,0-7.5,3.358-7.5,7.5s3.358,7.5,7.5,7.5h18.263c4.142,0,7.5-3.358,7.5-7.5S402.617,203.038,398.475,203.038z
	 M146.972,319.695c-19.142,0-34.715,15.573-34.715,34.715s15.573,34.715,34.715,34.715s34.715-15.573,34.715-34.715
	S166.114,319.695,146.972,319.695z M146.972,374.125c-10.871,0-19.715-8.844-19.715-19.715s8.844-19.715,19.715-19.715
	s19.715,8.844,19.715,19.715S157.843,374.125,146.972,374.125z"/>
<g>
</g>
<g>
</g>
<g>
</g>
<g>
</g>
<g>
</g>
<g>
</g>
<g>
</g>
<g>
</g>
<g>
</g>
<g>
</g>
<g>
</g>
<g>
</g>
<g>
</g>
<g>
</g>
<g>
</g>
</svg>
